<?xml version="1.0" encoding="utf-8" standalone="no"?>
<!DOCTYPE svg PUBLIC "-//W3C//DTD SVG 1.1//EN"
  "http://www.w3.org/Graphics/SVG/1.1/DTD/svg11.dtd">
<svg xmlns:xlink="http://www.w3.org/1999/xlink" width="460.8pt" height="345.6pt" viewBox="0 0 460.8 345.6" xmlns="http://www.w3.org/2000/svg" version="1.1">
 <metadata>
  <rdf:RDF xmlns:dc="http://purl.org/dc/elements/1.1/" xmlns:cc="http://creativecommons.org/ns#" xmlns:rdf="http://www.w3.org/1999/02/22-rdf-syntax-ns#">
   <cc:Work>
    <dc:type rdf:resource="http://purl.org/dc/dcmitype/StillImage"/>
    <dc:date>2023-11-14T10:50:57.479820</dc:date>
    <dc:format>image/svg+xml</dc:format>
    <dc:creator>
     <cc:Agent>
      <dc:title>Matplotlib v3.7.1, https://matplotlib.org/</dc:title>
     </cc:Agent>
    </dc:creator>
   </cc:Work>
  </rdf:RDF>
 </metadata>
 <defs>
  <style type="text/css">*{stroke-linejoin: round; stroke-linecap: butt}</style>
 </defs>
 <g id="figure_1">
  <g id="patch_1">
   <path d="M 0 345.6 
L 460.8 345.6 
L 460.8 0 
L 0 0 
z
" style="fill: #ffffff"/>
  </g>
  <g id="axes_1">
   <g id="patch_2">
    <path d="M 57.6 307.584 
L 414.72 307.584 
L 414.72 41.472 
L 57.6 41.472 
z
" style="fill: #ffffff"/>
   </g>
   <g id="patch_3">
    <path d="M 64.932864 178.145683 
L 83.598336 178.145683 
L 83.598336 137.351475 
L 64.932864 137.351475 
L 64.932864 178.145683 
z
" clip-path="url(#p98fe813f6e)" style="fill: #455681; stroke: #353535; stroke-width: 1.5; stroke-linejoin: miter"/>
   </g>
   <g id="patch_4">
    <path d="M 83.979264 191.953509 
L 102.644736 191.953509 
L 102.644736 144.92266 
L 83.979264 144.92266 
L 83.979264 191.953509 
z
" clip-path="url(#p98fe813f6e)" style="fill: #2f837f; stroke: #353535; stroke-width: 1.5; stroke-linejoin: miter"/>
   </g>
   <g id="patch_5">
    <path d="M 103.025664 192.284261 
L 121.691136 192.284261 
L 121.691136 145.280364 
L 103.025664 145.280364 
L 103.025664 192.284261 
z
" clip-path="url(#p98fe813f6e)" style="fill: #6cbc6e; stroke: #353535; stroke-width: 1.5; stroke-linejoin: miter"/>
   </g>
   <g id="patch_6">
    <path d="M 136.356864 182.754652 
L 155.022336 182.754652 
L 155.022336 128.378259 
L 136.356864 128.378259 
L 136.356864 182.754652 
z
" clip-path="url(#p98fe813f6e)" style="fill: #455681; stroke: #353535; stroke-width: 1.5; stroke-linejoin: miter"/>
   </g>
   <g id="patch_7">
    <path d="M 155.403264 208.658866 
L 174.068736 208.658866 
L 174.068736 106.134959 
L 155.403264 106.134959 
L 155.403264 208.658866 
z
" clip-path="url(#p98fe813f6e)" style="fill: #2f837f; stroke: #353535; stroke-width: 1.5; stroke-linejoin: miter"/>
   </g>
   <g id="patch_8">
    <path d="M 174.449664 218.288412 
L 193.115136 218.288412 
L 193.115136 119.048956 
L 174.449664 119.048956 
L 174.449664 218.288412 
z
" clip-path="url(#p98fe813f6e)" style="fill: #6cbc6e; stroke: #353535; stroke-width: 1.5; stroke-linejoin: miter"/>
   </g>
   <g id="patch_9">
    <path d="M 207.780864 188.553704 
L 226.446336 188.553704 
L 226.446336 154.255521 
L 207.780864 154.255521 
L 207.780864 188.553704 
z
" clip-path="url(#p98fe813f6e)" style="fill: #455681; stroke: #353535; stroke-width: 1.5; stroke-linejoin: miter"/>
   </g>
   <g id="patch_10">
    <path d="M 226.827264 202.854532 
L 245.492736 202.854532 
L 245.492736 125.042168 
L 226.827264 125.042168 
L 226.827264 202.854532 
z
" clip-path="url(#p98fe813f6e)" style="fill: #2f837f; stroke: #353535; stroke-width: 1.5; stroke-linejoin: miter"/>
   </g>
   <g id="patch_11">
    <path d="M 245.873664 215.983604 
L 264.539136 215.983604 
L 264.539136 142.82398 
L 245.873664 142.82398 
L 245.873664 215.983604 
z
" clip-path="url(#p98fe813f6e)" style="fill: #6cbc6e; stroke: #353535; stroke-width: 1.5; stroke-linejoin: miter"/>
   </g>
   <g id="patch_12">
    <path d="M 279.204864 243.696606 
L 297.870336 243.696606 
L 297.870336 167.707045 
L 279.204864 167.707045 
L 279.204864 243.696606 
z
" clip-path="url(#p98fe813f6e)" style="fill: #455681; stroke: #353535; stroke-width: 1.5; stroke-linejoin: miter"/>
   </g>
   <g id="patch_13">
    <path d="M 298.251264 228.317922 
L 316.916736 228.317922 
L 316.916736 152.748594 
L 298.251264 152.748594 
L 298.251264 228.317922 
z
" clip-path="url(#p98fe813f6e)" style="fill: #2f837f; stroke: #353535; stroke-width: 1.5; stroke-linejoin: miter"/>
   </g>
   <g id="patch_14">
    <path d="M 317.297664 238.780386 
L 335.963136 238.780386 
L 335.963136 166.708535 
L 317.297664 166.708535 
L 317.297664 238.780386 
z
" clip-path="url(#p98fe813f6e)" style="fill: #6cbc6e; stroke: #353535; stroke-width: 1.5; stroke-linejoin: miter"/>
   </g>
   <g id="patch_15">
    <path d="M 350.628864 254.425137 
L 369.294336 254.425137 
L 369.294336 225.698857 
L 350.628864 225.698857 
L 350.628864 254.425137 
z
" clip-path="url(#p98fe813f6e)" style="fill: #455681; stroke: #353535; stroke-width: 1.5; stroke-linejoin: miter"/>
   </g>
   <g id="patch_16">
    <path d="M 369.675264 253.47374 
L 388.340736 253.47374 
L 388.340736 209.895306 
L 369.675264 209.895306 
L 369.675264 253.47374 
z
" clip-path="url(#p98fe813f6e)" style="fill: #2f837f; stroke: #353535; stroke-width: 1.5; stroke-linejoin: miter"/>
   </g>
   <g id="patch_17">
    <path d="M 388.721664 249.023139 
L 407.387136 249.023139 
L 407.387136 204.707305 
L 388.721664 204.707305 
L 388.721664 249.023139 
z
" clip-path="url(#p98fe813f6e)" style="fill: #6cbc6e; stroke: #353535; stroke-width: 1.5; stroke-linejoin: miter"/>
   </g>
   <g id="patch_18">
    <path d="M 93.312 137.586387 
L 93.312 137.586387 
L 93.312 137.586387 
L 93.312 137.586387 
z
" clip-path="url(#p98fe813f6e)" style="fill: #455681; stroke: #353535; stroke-width: 0.75; stroke-linejoin: miter"/>
   </g>
   <g id="patch_19">
    <path d="M 93.312 137.586387 
L 93.312 137.586387 
L 93.312 137.586387 
L 93.312 137.586387 
z
" clip-path="url(#p98fe813f6e)" style="fill: #2f837f; stroke: #353535; stroke-width: 0.75; stroke-linejoin: miter"/>
   </g>
   <g id="patch_20">
    <path d="M 93.312 137.586387 
L 93.312 137.586387 
L 93.312 137.586387 
L 93.312 137.586387 
z
" clip-path="url(#p98fe813f6e)" style="fill: #6cbc6e; stroke: #353535; stroke-width: 0.75; stroke-linejoin: miter"/>
   </g>
   <g id="matplotlib.axis_1">
    <g id="xtick_1">
     <g id="line2d_1">
      <defs>
       <path id="m640cd74d24" d="M 0 0 
L 0 3.5 
" style="stroke: #000000; stroke-width: 0.8"/>
      </defs>
      <g>
       <use xlink:href="#m640cd74d24" x="93.312" y="307.584" style="stroke: #000000; stroke-width: 0.8"/>
      </g>
     </g>
     <g id="text_1">
      <!-- Feb 12 -->
      <g transform="translate(76.508875 322.182437) scale(0.1 -0.1)">
       <defs>
        <path id="DejaVuSans-46" d="M 628 4666 
L 3309 4666 
L 3309 4134 
L 1259 4134 
L 1259 2759 
L 3109 2759 
L 3109 2228 
L 1259 2228 
L 1259 0 
L 628 0 
L 628 4666 
z
" transform="scale(0.015625)"/>
        <path id="DejaVuSans-65" d="M 3597 1894 
L 3597 1613 
L 953 1613 
Q 991 1019 1311 708 
Q 1631 397 2203 397 
Q 2534 397 2845 478 
Q 3156 559 3463 722 
L 3463 178 
Q 3153 47 2828 -22 
Q 2503 -91 2169 -91 
Q 1331 -91 842 396 
Q 353 884 353 1716 
Q 353 2575 817 3079 
Q 1281 3584 2069 3584 
Q 2775 3584 3186 3129 
Q 3597 2675 3597 1894 
z
M 3022 2063 
Q 3016 2534 2758 2815 
Q 2500 3097 2075 3097 
Q 1594 3097 1305 2825 
Q 1016 2553 972 2059 
L 3022 2063 
z
" transform="scale(0.015625)"/>
        <path id="DejaVuSans-62" d="M 3116 1747 
Q 3116 2381 2855 2742 
Q 2594 3103 2138 3103 
Q 1681 3103 1420 2742 
Q 1159 2381 1159 1747 
Q 1159 1113 1420 752 
Q 1681 391 2138 391 
Q 2594 391 2855 752 
Q 3116 1113 3116 1747 
z
M 1159 2969 
Q 1341 3281 1617 3432 
Q 1894 3584 2278 3584 
Q 2916 3584 3314 3078 
Q 3713 2572 3713 1747 
Q 3713 922 3314 415 
Q 2916 -91 2278 -91 
Q 1894 -91 1617 61 
Q 1341 213 1159 525 
L 1159 0 
L 581 0 
L 581 4863 
L 1159 4863 
L 1159 2969 
z
" transform="scale(0.015625)"/>
        <path id="DejaVuSans-20" transform="scale(0.015625)"/>
        <path id="DejaVuSans-31" d="M 794 531 
L 1825 531 
L 1825 4091 
L 703 3866 
L 703 4441 
L 1819 4666 
L 2450 4666 
L 2450 531 
L 3481 531 
L 3481 0 
L 794 0 
L 794 531 
z
" transform="scale(0.015625)"/>
        <path id="DejaVuSans-32" d="M 1228 531 
L 3431 531 
L 3431 0 
L 469 0 
L 469 531 
Q 828 903 1448 1529 
Q 2069 2156 2228 2338 
Q 2531 2678 2651 2914 
Q 2772 3150 2772 3378 
Q 2772 3750 2511 3984 
Q 2250 4219 1831 4219 
Q 1534 4219 1204 4116 
Q 875 4013 500 3803 
L 500 4441 
Q 881 4594 1212 4672 
Q 1544 4750 1819 4750 
Q 2544 4750 2975 4387 
Q 3406 4025 3406 3419 
Q 3406 3131 3298 2873 
Q 3191 2616 2906 2266 
Q 2828 2175 2409 1742 
Q 1991 1309 1228 531 
z
" transform="scale(0.015625)"/>
       </defs>
       <use xlink:href="#DejaVuSans-46"/>
       <use xlink:href="#DejaVuSans-65" x="52.019531"/>
       <use xlink:href="#DejaVuSans-62" x="113.542969"/>
       <use xlink:href="#DejaVuSans-20" x="177.019531"/>
       <use xlink:href="#DejaVuSans-31" x="208.806641"/>
       <use xlink:href="#DejaVuSans-32" x="272.429688"/>
      </g>
     </g>
    </g>
    <g id="xtick_2">
     <g id="line2d_2">
      <g>
       <use xlink:href="#m640cd74d24" x="164.736" y="307.584" style="stroke: #000000; stroke-width: 0.8"/>
      </g>
     </g>
     <g id="text_2">
      <!-- Apr 07 -->
      <g transform="translate(148.134438 322.182437) scale(0.1 -0.1)">
       <defs>
        <path id="DejaVuSans-41" d="M 2188 4044 
L 1331 1722 
L 3047 1722 
L 2188 4044 
z
M 1831 4666 
L 2547 4666 
L 4325 0 
L 3669 0 
L 3244 1197 
L 1141 1197 
L 716 0 
L 50 0 
L 1831 4666 
z
" transform="scale(0.015625)"/>
        <path id="DejaVuSans-70" d="M 1159 525 
L 1159 -1331 
L 581 -1331 
L 581 3500 
L 1159 3500 
L 1159 2969 
Q 1341 3281 1617 3432 
Q 1894 3584 2278 3584 
Q 2916 3584 3314 3078 
Q 3713 2572 3713 1747 
Q 3713 922 3314 415 
Q 2916 -91 2278 -91 
Q 1894 -91 1617 61 
Q 1341 213 1159 525 
z
M 3116 1747 
Q 3116 2381 2855 2742 
Q 2594 3103 2138 3103 
Q 1681 3103 1420 2742 
Q 1159 2381 1159 1747 
Q 1159 1113 1420 752 
Q 1681 391 2138 391 
Q 2594 391 2855 752 
Q 3116 1113 3116 1747 
z
" transform="scale(0.015625)"/>
        <path id="DejaVuSans-72" d="M 2631 2963 
Q 2534 3019 2420 3045 
Q 2306 3072 2169 3072 
Q 1681 3072 1420 2755 
Q 1159 2438 1159 1844 
L 1159 0 
L 581 0 
L 581 3500 
L 1159 3500 
L 1159 2956 
Q 1341 3275 1631 3429 
Q 1922 3584 2338 3584 
Q 2397 3584 2469 3576 
Q 2541 3569 2628 3553 
L 2631 2963 
z
" transform="scale(0.015625)"/>
        <path id="DejaVuSans-30" d="M 2034 4250 
Q 1547 4250 1301 3770 
Q 1056 3291 1056 2328 
Q 1056 1369 1301 889 
Q 1547 409 2034 409 
Q 2525 409 2770 889 
Q 3016 1369 3016 2328 
Q 3016 3291 2770 3770 
Q 2525 4250 2034 4250 
z
M 2034 4750 
Q 2819 4750 3233 4129 
Q 3647 3509 3647 2328 
Q 3647 1150 3233 529 
Q 2819 -91 2034 -91 
Q 1250 -91 836 529 
Q 422 1150 422 2328 
Q 422 3509 836 4129 
Q 1250 4750 2034 4750 
z
" transform="scale(0.015625)"/>
        <path id="DejaVuSans-37" d="M 525 4666 
L 3525 4666 
L 3525 4397 
L 1831 0 
L 1172 0 
L 2766 4134 
L 525 4134 
L 525 4666 
z
" transform="scale(0.015625)"/>
       </defs>
       <use xlink:href="#DejaVuSans-41"/>
       <use xlink:href="#DejaVuSans-70" x="68.408203"/>
       <use xlink:href="#DejaVuSans-72" x="131.884766"/>
       <use xlink:href="#DejaVuSans-20" x="172.998047"/>
       <use xlink:href="#DejaVuSans-30" x="204.785156"/>
       <use xlink:href="#DejaVuSans-37" x="268.408203"/>
      </g>
     </g>
    </g>
    <g id="xtick_3">
     <g id="line2d_3">
      <g>
       <use xlink:href="#m640cd74d24" x="236.16" y="307.584" style="stroke: #000000; stroke-width: 0.8"/>
      </g>
     </g>
     <g id="text_3">
      <!-- May 05 -->
      <g transform="translate(217.870938 322.182437) scale(0.1 -0.1)">
       <defs>
        <path id="DejaVuSans-4d" d="M 628 4666 
L 1569 4666 
L 2759 1491 
L 3956 4666 
L 4897 4666 
L 4897 0 
L 4281 0 
L 4281 4097 
L 3078 897 
L 2444 897 
L 1241 4097 
L 1241 0 
L 628 0 
L 628 4666 
z
" transform="scale(0.015625)"/>
        <path id="DejaVuSans-61" d="M 2194 1759 
Q 1497 1759 1228 1600 
Q 959 1441 959 1056 
Q 959 750 1161 570 
Q 1363 391 1709 391 
Q 2188 391 2477 730 
Q 2766 1069 2766 1631 
L 2766 1759 
L 2194 1759 
z
M 3341 1997 
L 3341 0 
L 2766 0 
L 2766 531 
Q 2569 213 2275 61 
Q 1981 -91 1556 -91 
Q 1019 -91 701 211 
Q 384 513 384 1019 
Q 384 1609 779 1909 
Q 1175 2209 1959 2209 
L 2766 2209 
L 2766 2266 
Q 2766 2663 2505 2880 
Q 2244 3097 1772 3097 
Q 1472 3097 1187 3025 
Q 903 2953 641 2809 
L 641 3341 
Q 956 3463 1253 3523 
Q 1550 3584 1831 3584 
Q 2591 3584 2966 3190 
Q 3341 2797 3341 1997 
z
" transform="scale(0.015625)"/>
        <path id="DejaVuSans-79" d="M 2059 -325 
Q 1816 -950 1584 -1140 
Q 1353 -1331 966 -1331 
L 506 -1331 
L 506 -850 
L 844 -850 
Q 1081 -850 1212 -737 
Q 1344 -625 1503 -206 
L 1606 56 
L 191 3500 
L 800 3500 
L 1894 763 
L 2988 3500 
L 3597 3500 
L 2059 -325 
z
" transform="scale(0.015625)"/>
        <path id="DejaVuSans-35" d="M 691 4666 
L 3169 4666 
L 3169 4134 
L 1269 4134 
L 1269 2991 
Q 1406 3038 1543 3061 
Q 1681 3084 1819 3084 
Q 2600 3084 3056 2656 
Q 3513 2228 3513 1497 
Q 3513 744 3044 326 
Q 2575 -91 1722 -91 
Q 1428 -91 1123 -41 
Q 819 9 494 109 
L 494 744 
Q 775 591 1075 516 
Q 1375 441 1709 441 
Q 2250 441 2565 725 
Q 2881 1009 2881 1497 
Q 2881 1984 2565 2268 
Q 2250 2553 1709 2553 
Q 1456 2553 1204 2497 
Q 953 2441 691 2322 
L 691 4666 
z
" transform="scale(0.015625)"/>
       </defs>
       <use xlink:href="#DejaVuSans-4d"/>
       <use xlink:href="#DejaVuSans-61" x="86.279297"/>
       <use xlink:href="#DejaVuSans-79" x="147.558594"/>
       <use xlink:href="#DejaVuSans-20" x="206.738281"/>
       <use xlink:href="#DejaVuSans-30" x="238.525391"/>
       <use xlink:href="#DejaVuSans-35" x="302.148438"/>
      </g>
     </g>
    </g>
    <g id="xtick_4">
     <g id="line2d_4">
      <g>
       <use xlink:href="#m640cd74d24" x="307.584" y="307.584" style="stroke: #000000; stroke-width: 0.8"/>
      </g>
     </g>
     <g id="text_4">
      <!-- May 10 -->
      <g transform="translate(289.294938 322.182437) scale(0.1 -0.1)">
       <use xlink:href="#DejaVuSans-4d"/>
       <use xlink:href="#DejaVuSans-61" x="86.279297"/>
       <use xlink:href="#DejaVuSans-79" x="147.558594"/>
       <use xlink:href="#DejaVuSans-20" x="206.738281"/>
       <use xlink:href="#DejaVuSans-31" x="238.525391"/>
       <use xlink:href="#DejaVuSans-30" x="302.148438"/>
      </g>
     </g>
    </g>
    <g id="xtick_5">
     <g id="line2d_5">
      <g>
       <use xlink:href="#m640cd74d24" x="379.008" y="307.584" style="stroke: #000000; stroke-width: 0.8"/>
      </g>
     </g>
     <g id="text_5">
      <!-- May 17 -->
      <g transform="translate(360.718938 322.182437) scale(0.1 -0.1)">
       <use xlink:href="#DejaVuSans-4d"/>
       <use xlink:href="#DejaVuSans-61" x="86.279297"/>
       <use xlink:href="#DejaVuSans-79" x="147.558594"/>
       <use xlink:href="#DejaVuSans-20" x="206.738281"/>
       <use xlink:href="#DejaVuSans-31" x="238.525391"/>
       <use xlink:href="#DejaVuSans-37" x="302.148438"/>
      </g>
     </g>
    </g>
    <g id="text_6">
     <!-- date -->
     <g transform="translate(224.885 335.860562) scale(0.1 -0.1)">
      <defs>
       <path id="DejaVuSans-64" d="M 2906 2969 
L 2906 4863 
L 3481 4863 
L 3481 0 
L 2906 0 
L 2906 525 
Q 2725 213 2448 61 
Q 2172 -91 1784 -91 
Q 1150 -91 751 415 
Q 353 922 353 1747 
Q 353 2572 751 3078 
Q 1150 3584 1784 3584 
Q 2172 3584 2448 3432 
Q 2725 3281 2906 2969 
z
M 947 1747 
Q 947 1113 1208 752 
Q 1469 391 1925 391 
Q 2381 391 2643 752 
Q 2906 1113 2906 1747 
Q 2906 2381 2643 2742 
Q 2381 3103 1925 3103 
Q 1469 3103 1208 2742 
Q 947 2381 947 1747 
z
" transform="scale(0.015625)"/>
       <path id="DejaVuSans-74" d="M 1172 4494 
L 1172 3500 
L 2356 3500 
L 2356 3053 
L 1172 3053 
L 1172 1153 
Q 1172 725 1289 603 
Q 1406 481 1766 481 
L 2356 481 
L 2356 0 
L 1766 0 
Q 1100 0 847 248 
Q 594 497 594 1153 
L 594 3053 
L 172 3053 
L 172 3500 
L 594 3500 
L 594 4494 
L 1172 4494 
z
" transform="scale(0.015625)"/>
      </defs>
      <use xlink:href="#DejaVuSans-64"/>
      <use xlink:href="#DejaVuSans-61" x="63.476562"/>
      <use xlink:href="#DejaVuSans-74" x="124.755859"/>
      <use xlink:href="#DejaVuSans-65" x="163.964844"/>
     </g>
    </g>
   </g>
   <g id="matplotlib.axis_2">
    <g id="ytick_1">
     <g id="line2d_6">
      <defs>
       <path id="mad5515a05f" d="M 0 0 
L -3.5 0 
" style="stroke: #000000; stroke-width: 0.8"/>
      </defs>
      <g>
       <use xlink:href="#mad5515a05f" x="57.6" y="266.95491" style="stroke: #000000; stroke-width: 0.8"/>
      </g>
     </g>
     <g id="text_7">
      <!-- −0.3 -->
      <g transform="translate(26.317187 270.754129) scale(0.1 -0.1)">
       <defs>
        <path id="DejaVuSans-2212" d="M 678 2272 
L 4684 2272 
L 4684 1741 
L 678 1741 
L 678 2272 
z
" transform="scale(0.015625)"/>
        <path id="DejaVuSans-2e" d="M 684 794 
L 1344 794 
L 1344 0 
L 684 0 
L 684 794 
z
" transform="scale(0.015625)"/>
        <path id="DejaVuSans-33" d="M 2597 2516 
Q 3050 2419 3304 2112 
Q 3559 1806 3559 1356 
Q 3559 666 3084 287 
Q 2609 -91 1734 -91 
Q 1441 -91 1130 -33 
Q 819 25 488 141 
L 488 750 
Q 750 597 1062 519 
Q 1375 441 1716 441 
Q 2309 441 2620 675 
Q 2931 909 2931 1356 
Q 2931 1769 2642 2001 
Q 2353 2234 1838 2234 
L 1294 2234 
L 1294 2753 
L 1863 2753 
Q 2328 2753 2575 2939 
Q 2822 3125 2822 3475 
Q 2822 3834 2567 4026 
Q 2313 4219 1838 4219 
Q 1578 4219 1281 4162 
Q 984 4106 628 3988 
L 628 4550 
Q 988 4650 1302 4700 
Q 1616 4750 1894 4750 
Q 2613 4750 3031 4423 
Q 3450 4097 3450 3541 
Q 3450 3153 3228 2886 
Q 3006 2619 2597 2516 
z
" transform="scale(0.015625)"/>
       </defs>
       <use xlink:href="#DejaVuSans-2212"/>
       <use xlink:href="#DejaVuSans-30" x="83.789062"/>
       <use xlink:href="#DejaVuSans-2e" x="147.412109"/>
       <use xlink:href="#DejaVuSans-33" x="179.199219"/>
      </g>
     </g>
    </g>
    <g id="ytick_2">
     <g id="line2d_7">
      <g>
       <use xlink:href="#mad5515a05f" x="57.6" y="223.832069" style="stroke: #000000; stroke-width: 0.8"/>
      </g>
     </g>
     <g id="text_8">
      <!-- −0.2 -->
      <g transform="translate(26.317187 227.631288) scale(0.1 -0.1)">
       <use xlink:href="#DejaVuSans-2212"/>
       <use xlink:href="#DejaVuSans-30" x="83.789062"/>
       <use xlink:href="#DejaVuSans-2e" x="147.412109"/>
       <use xlink:href="#DejaVuSans-32" x="179.199219"/>
      </g>
     </g>
    </g>
    <g id="ytick_3">
     <g id="line2d_8">
      <g>
       <use xlink:href="#mad5515a05f" x="57.6" y="180.709228" style="stroke: #000000; stroke-width: 0.8"/>
      </g>
     </g>
     <g id="text_9">
      <!-- −0.1 -->
      <g transform="translate(26.317187 184.508447) scale(0.1 -0.1)">
       <use xlink:href="#DejaVuSans-2212"/>
       <use xlink:href="#DejaVuSans-30" x="83.789062"/>
       <use xlink:href="#DejaVuSans-2e" x="147.412109"/>
       <use xlink:href="#DejaVuSans-31" x="179.199219"/>
      </g>
     </g>
    </g>
    <g id="ytick_4">
     <g id="line2d_9">
      <g>
       <use xlink:href="#mad5515a05f" x="57.6" y="137.586387" style="stroke: #000000; stroke-width: 0.8"/>
      </g>
     </g>
     <g id="text_10">
      <!-- 0.0 -->
      <g transform="translate(34.696875 141.385606) scale(0.1 -0.1)">
       <use xlink:href="#DejaVuSans-30"/>
       <use xlink:href="#DejaVuSans-2e" x="63.623047"/>
       <use xlink:href="#DejaVuSans-30" x="95.410156"/>
      </g>
     </g>
    </g>
    <g id="ytick_5">
     <g id="line2d_10">
      <g>
       <use xlink:href="#mad5515a05f" x="57.6" y="94.463546" style="stroke: #000000; stroke-width: 0.8"/>
      </g>
     </g>
     <g id="text_11">
      <!-- 0.1 -->
      <g transform="translate(34.696875 98.262765) scale(0.1 -0.1)">
       <use xlink:href="#DejaVuSans-30"/>
       <use xlink:href="#DejaVuSans-2e" x="63.623047"/>
       <use xlink:href="#DejaVuSans-31" x="95.410156"/>
      </g>
     </g>
    </g>
    <g id="ytick_6">
     <g id="line2d_11">
      <g>
       <use xlink:href="#mad5515a05f" x="57.6" y="51.340705" style="stroke: #000000; stroke-width: 0.8"/>
      </g>
     </g>
     <g id="text_12">
      <!-- 0.2 -->
      <g transform="translate(34.696875 55.139924) scale(0.1 -0.1)">
       <use xlink:href="#DejaVuSans-30"/>
       <use xlink:href="#DejaVuSans-2e" x="63.623047"/>
       <use xlink:href="#DejaVuSans-32" x="95.410156"/>
      </g>
     </g>
    </g>
    <g id="text_13">
     <!-- swe_diff -->
     <g transform="translate(19.959375 194.881906) rotate(-90) scale(0.1 -0.1)">
      <defs>
       <path id="DejaVuSans-73" d="M 2834 3397 
L 2834 2853 
Q 2591 2978 2328 3040 
Q 2066 3103 1784 3103 
Q 1356 3103 1142 2972 
Q 928 2841 928 2578 
Q 928 2378 1081 2264 
Q 1234 2150 1697 2047 
L 1894 2003 
Q 2506 1872 2764 1633 
Q 3022 1394 3022 966 
Q 3022 478 2636 193 
Q 2250 -91 1575 -91 
Q 1294 -91 989 -36 
Q 684 19 347 128 
L 347 722 
Q 666 556 975 473 
Q 1284 391 1588 391 
Q 1994 391 2212 530 
Q 2431 669 2431 922 
Q 2431 1156 2273 1281 
Q 2116 1406 1581 1522 
L 1381 1569 
Q 847 1681 609 1914 
Q 372 2147 372 2553 
Q 372 3047 722 3315 
Q 1072 3584 1716 3584 
Q 2034 3584 2315 3537 
Q 2597 3491 2834 3397 
z
" transform="scale(0.015625)"/>
       <path id="DejaVuSans-77" d="M 269 3500 
L 844 3500 
L 1563 769 
L 2278 3500 
L 2956 3500 
L 3675 769 
L 4391 3500 
L 4966 3500 
L 4050 0 
L 3372 0 
L 2619 2869 
L 1863 0 
L 1184 0 
L 269 3500 
z
" transform="scale(0.015625)"/>
       <path id="DejaVuSans-5f" d="M 3263 -1063 
L 3263 -1509 
L -63 -1509 
L -63 -1063 
L 3263 -1063 
z
" transform="scale(0.015625)"/>
       <path id="DejaVuSans-69" d="M 603 3500 
L 1178 3500 
L 1178 0 
L 603 0 
L 603 3500 
z
M 603 4863 
L 1178 4863 
L 1178 4134 
L 603 4134 
L 603 4863 
z
" transform="scale(0.015625)"/>
       <path id="DejaVuSans-66" d="M 2375 4863 
L 2375 4384 
L 1825 4384 
Q 1516 4384 1395 4259 
Q 1275 4134 1275 3809 
L 1275 3500 
L 2222 3500 
L 2222 3053 
L 1275 3053 
L 1275 0 
L 697 0 
L 697 3053 
L 147 3053 
L 147 3500 
L 697 3500 
L 697 3744 
Q 697 4328 969 4595 
Q 1241 4863 1831 4863 
L 2375 4863 
z
" transform="scale(0.015625)"/>
      </defs>
      <use xlink:href="#DejaVuSans-73"/>
      <use xlink:href="#DejaVuSans-77" x="52.099609"/>
      <use xlink:href="#DejaVuSans-65" x="133.886719"/>
      <use xlink:href="#DejaVuSans-5f" x="195.410156"/>
      <use xlink:href="#DejaVuSans-64" x="245.410156"/>
      <use xlink:href="#DejaVuSans-69" x="308.886719"/>
      <use xlink:href="#DejaVuSans-66" x="336.669922"/>
      <use xlink:href="#DejaVuSans-66" x="371.875"/>
     </g>
    </g>
   </g>
   <g id="line2d_12">
    <path d="M 74.2656 178.145683 
L 74.2656 191.022487 
" clip-path="url(#p98fe813f6e)" style="fill: none; stroke: #353535; stroke-width: 1.5; stroke-linecap: square"/>
   </g>
   <g id="line2d_13">
    <path d="M 74.2656 137.351475 
L 74.2656 109.453477 
" clip-path="url(#p98fe813f6e)" style="fill: none; stroke: #353535; stroke-width: 1.5; stroke-linecap: square"/>
   </g>
   <g id="line2d_14">
    <path d="M 69.599232 191.022487 
L 78.931968 191.022487 
" clip-path="url(#p98fe813f6e)" style="fill: none; stroke: #353535; stroke-width: 1.5; stroke-linecap: square"/>
   </g>
   <g id="line2d_15">
    <path d="M 69.599232 109.453477 
L 78.931968 109.453477 
" clip-path="url(#p98fe813f6e)" style="fill: none; stroke: #353535; stroke-width: 1.5; stroke-linecap: square"/>
   </g>
   <g id="line2d_16">
    <defs>
     <path id="mb9a9695982" d="M -0 3.535534 
L 2.12132 0 
L -0 -3.535534 
L -2.12132 -0 
z
" style="stroke: #353535; stroke-linejoin: miter"/>
    </defs>
    <g clip-path="url(#p98fe813f6e)">
     <use xlink:href="#mb9a9695982" x="74.2656" y="244.035551" style="fill: #353535; stroke: #353535; stroke-linejoin: miter"/>
    </g>
   </g>
   <g id="line2d_17">
    <path d="M 93.312 191.953509 
L 93.312 250.833867 
" clip-path="url(#p98fe813f6e)" style="fill: none; stroke: #353535; stroke-width: 1.5; stroke-linecap: square"/>
   </g>
   <g id="line2d_18">
    <path d="M 93.312 144.92266 
L 93.312 112.63163 
" clip-path="url(#p98fe813f6e)" style="fill: none; stroke: #353535; stroke-width: 1.5; stroke-linecap: square"/>
   </g>
   <g id="line2d_19">
    <path d="M 88.645632 250.833867 
L 97.978368 250.833867 
" clip-path="url(#p98fe813f6e)" style="fill: none; stroke: #353535; stroke-width: 1.5; stroke-linecap: square"/>
   </g>
   <g id="line2d_20">
    <path d="M 88.645632 112.63163 
L 97.978368 112.63163 
" clip-path="url(#p98fe813f6e)" style="fill: none; stroke: #353535; stroke-width: 1.5; stroke-linecap: square"/>
   </g>
   <g id="line2d_21"/>
   <g id="line2d_22">
    <path d="M 112.3584 192.284261 
L 112.3584 251.02792 
" clip-path="url(#p98fe813f6e)" style="fill: none; stroke: #353535; stroke-width: 1.5; stroke-linecap: square"/>
   </g>
   <g id="line2d_23">
    <path d="M 112.3584 145.280364 
L 112.3584 113.137892 
" clip-path="url(#p98fe813f6e)" style="fill: none; stroke: #353535; stroke-width: 1.5; stroke-linecap: square"/>
   </g>
   <g id="line2d_24">
    <path d="M 107.692032 251.02792 
L 117.024768 251.02792 
" clip-path="url(#p98fe813f6e)" style="fill: none; stroke: #353535; stroke-width: 1.5; stroke-linecap: square"/>
   </g>
   <g id="line2d_25">
    <path d="M 107.692032 113.137892 
L 117.024768 113.137892 
" clip-path="url(#p98fe813f6e)" style="fill: none; stroke: #353535; stroke-width: 1.5; stroke-linecap: square"/>
   </g>
   <g id="line2d_26"/>
   <g id="line2d_27">
    <path d="M 145.6896 182.754652 
L 145.6896 263.047118 
" clip-path="url(#p98fe813f6e)" style="fill: none; stroke: #353535; stroke-width: 1.5; stroke-linecap: square"/>
   </g>
   <g id="line2d_28">
    <path d="M 145.6896 128.378259 
L 145.6896 94.012481 
" clip-path="url(#p98fe813f6e)" style="fill: none; stroke: #353535; stroke-width: 1.5; stroke-linecap: square"/>
   </g>
   <g id="line2d_29">
    <path d="M 141.023232 263.047118 
L 150.355968 263.047118 
" clip-path="url(#p98fe813f6e)" style="fill: none; stroke: #353535; stroke-width: 1.5; stroke-linecap: square"/>
   </g>
   <g id="line2d_30">
    <path d="M 141.023232 94.012481 
L 150.355968 94.012481 
" clip-path="url(#p98fe813f6e)" style="fill: none; stroke: #353535; stroke-width: 1.5; stroke-linecap: square"/>
   </g>
   <g id="line2d_31"/>
   <g id="line2d_32">
    <path d="M 164.736 208.658866 
L 164.736 277.49672 
" clip-path="url(#p98fe813f6e)" style="fill: none; stroke: #353535; stroke-width: 1.5; stroke-linecap: square"/>
   </g>
   <g id="line2d_33">
    <path d="M 164.736 106.134959 
L 164.736 53.568 
" clip-path="url(#p98fe813f6e)" style="fill: none; stroke: #353535; stroke-width: 1.5; stroke-linecap: square"/>
   </g>
   <g id="line2d_34">
    <path d="M 160.069632 277.49672 
L 169.402368 277.49672 
" clip-path="url(#p98fe813f6e)" style="fill: none; stroke: #353535; stroke-width: 1.5; stroke-linecap: square"/>
   </g>
   <g id="line2d_35">
    <path d="M 160.069632 53.568 
L 169.402368 53.568 
" clip-path="url(#p98fe813f6e)" style="fill: none; stroke: #353535; stroke-width: 1.5; stroke-linecap: square"/>
   </g>
   <g id="line2d_36"/>
   <g id="line2d_37">
    <path d="M 183.7824 218.288412 
L 183.7824 282.951759 
" clip-path="url(#p98fe813f6e)" style="fill: none; stroke: #353535; stroke-width: 1.5; stroke-linecap: square"/>
   </g>
   <g id="line2d_38">
    <path d="M 183.7824 119.048956 
L 183.7824 67.930062 
" clip-path="url(#p98fe813f6e)" style="fill: none; stroke: #353535; stroke-width: 1.5; stroke-linecap: square"/>
   </g>
   <g id="line2d_39">
    <path d="M 179.116032 282.951759 
L 188.448768 282.951759 
" clip-path="url(#p98fe813f6e)" style="fill: none; stroke: #353535; stroke-width: 1.5; stroke-linecap: square"/>
   </g>
   <g id="line2d_40">
    <path d="M 179.116032 67.930062 
L 188.448768 67.930062 
" clip-path="url(#p98fe813f6e)" style="fill: none; stroke: #353535; stroke-width: 1.5; stroke-linecap: square"/>
   </g>
   <g id="line2d_41"/>
   <g id="line2d_42">
    <path d="M 217.1136 188.553704 
L 217.1136 215.088913 
" clip-path="url(#p98fe813f6e)" style="fill: none; stroke: #353535; stroke-width: 1.5; stroke-linecap: square"/>
   </g>
   <g id="line2d_43">
    <path d="M 217.1136 154.255521 
L 217.1136 111.68724 
" clip-path="url(#p98fe813f6e)" style="fill: none; stroke: #353535; stroke-width: 1.5; stroke-linecap: square"/>
   </g>
   <g id="line2d_44">
    <path d="M 212.447232 215.088913 
L 221.779968 215.088913 
" clip-path="url(#p98fe813f6e)" style="fill: none; stroke: #353535; stroke-width: 1.5; stroke-linecap: square"/>
   </g>
   <g id="line2d_45">
    <path d="M 212.447232 111.68724 
L 221.779968 111.68724 
" clip-path="url(#p98fe813f6e)" style="fill: none; stroke: #353535; stroke-width: 1.5; stroke-linecap: square"/>
   </g>
   <g id="line2d_46"/>
   <g id="line2d_47">
    <path d="M 236.16 202.854532 
L 236.16 285.393805 
" clip-path="url(#p98fe813f6e)" style="fill: none; stroke: #353535; stroke-width: 1.5; stroke-linecap: square"/>
   </g>
   <g id="line2d_48">
    <path d="M 236.16 125.042168 
L 236.16 95.549379 
" clip-path="url(#p98fe813f6e)" style="fill: none; stroke: #353535; stroke-width: 1.5; stroke-linecap: square"/>
   </g>
   <g id="line2d_49">
    <path d="M 231.493632 285.393805 
L 240.826368 285.393805 
" clip-path="url(#p98fe813f6e)" style="fill: none; stroke: #353535; stroke-width: 1.5; stroke-linecap: square"/>
   </g>
   <g id="line2d_50">
    <path d="M 231.493632 95.549379 
L 240.826368 95.549379 
" clip-path="url(#p98fe813f6e)" style="fill: none; stroke: #353535; stroke-width: 1.5; stroke-linecap: square"/>
   </g>
   <g id="line2d_51"/>
   <g id="line2d_52">
    <path d="M 255.2064 215.983604 
L 255.2064 295.488 
" clip-path="url(#p98fe813f6e)" style="fill: none; stroke: #353535; stroke-width: 1.5; stroke-linecap: square"/>
   </g>
   <g id="line2d_53">
    <path d="M 255.2064 142.82398 
L 255.2064 115.228488 
" clip-path="url(#p98fe813f6e)" style="fill: none; stroke: #353535; stroke-width: 1.5; stroke-linecap: square"/>
   </g>
   <g id="line2d_54">
    <path d="M 250.540032 295.488 
L 259.872768 295.488 
" clip-path="url(#p98fe813f6e)" style="fill: none; stroke: #353535; stroke-width: 1.5; stroke-linecap: square"/>
   </g>
   <g id="line2d_55">
    <path d="M 250.540032 115.228488 
L 259.872768 115.228488 
" clip-path="url(#p98fe813f6e)" style="fill: none; stroke: #353535; stroke-width: 1.5; stroke-linecap: square"/>
   </g>
   <g id="line2d_56"/>
   <g id="line2d_57">
    <path d="M 288.5376 243.696606 
L 288.5376 265.960928 
" clip-path="url(#p98fe813f6e)" style="fill: none; stroke: #353535; stroke-width: 1.5; stroke-linecap: square"/>
   </g>
   <g id="line2d_58">
    <path d="M 288.5376 167.707045 
L 288.5376 151.652627 
" clip-path="url(#p98fe813f6e)" style="fill: none; stroke: #353535; stroke-width: 1.5; stroke-linecap: square"/>
   </g>
   <g id="line2d_59">
    <path d="M 283.871232 265.960928 
L 293.203968 265.960928 
" clip-path="url(#p98fe813f6e)" style="fill: none; stroke: #353535; stroke-width: 1.5; stroke-linecap: square"/>
   </g>
   <g id="line2d_60">
    <path d="M 283.871232 151.652627 
L 293.203968 151.652627 
" clip-path="url(#p98fe813f6e)" style="fill: none; stroke: #353535; stroke-width: 1.5; stroke-linecap: square"/>
   </g>
   <g id="line2d_61"/>
   <g id="line2d_62">
    <path d="M 307.584 228.317922 
L 307.584 283.277336 
" clip-path="url(#p98fe813f6e)" style="fill: none; stroke: #353535; stroke-width: 1.5; stroke-linecap: square"/>
   </g>
   <g id="line2d_63">
    <path d="M 307.584 152.748594 
L 307.584 115.408741 
" clip-path="url(#p98fe813f6e)" style="fill: none; stroke: #353535; stroke-width: 1.5; stroke-linecap: square"/>
   </g>
   <g id="line2d_64">
    <path d="M 302.917632 283.277336 
L 312.250368 283.277336 
" clip-path="url(#p98fe813f6e)" style="fill: none; stroke: #353535; stroke-width: 1.5; stroke-linecap: square"/>
   </g>
   <g id="line2d_65">
    <path d="M 302.917632 115.408741 
L 312.250368 115.408741 
" clip-path="url(#p98fe813f6e)" style="fill: none; stroke: #353535; stroke-width: 1.5; stroke-linecap: square"/>
   </g>
   <g id="line2d_66"/>
   <g id="line2d_67">
    <path d="M 326.6304 238.780386 
L 326.6304 291.157604 
" clip-path="url(#p98fe813f6e)" style="fill: none; stroke: #353535; stroke-width: 1.5; stroke-linecap: square"/>
   </g>
   <g id="line2d_68">
    <path d="M 326.6304 166.708535 
L 326.6304 132.206381 
" clip-path="url(#p98fe813f6e)" style="fill: none; stroke: #353535; stroke-width: 1.5; stroke-linecap: square"/>
   </g>
   <g id="line2d_69">
    <path d="M 321.964032 291.157604 
L 331.296768 291.157604 
" clip-path="url(#p98fe813f6e)" style="fill: none; stroke: #353535; stroke-width: 1.5; stroke-linecap: square"/>
   </g>
   <g id="line2d_70">
    <path d="M 321.964032 132.206381 
L 331.296768 132.206381 
" clip-path="url(#p98fe813f6e)" style="fill: none; stroke: #353535; stroke-width: 1.5; stroke-linecap: square"/>
   </g>
   <g id="line2d_71"/>
   <g id="line2d_72">
    <path d="M 359.9616 254.425137 
L 359.9616 263.568042 
" clip-path="url(#p98fe813f6e)" style="fill: none; stroke: #353535; stroke-width: 1.5; stroke-linecap: square"/>
   </g>
   <g id="line2d_73">
    <path d="M 359.9616 225.698857 
L 359.9616 225.698857 
" clip-path="url(#p98fe813f6e)" style="fill: none; stroke: #353535; stroke-width: 1.5; stroke-linecap: square"/>
   </g>
   <g id="line2d_74">
    <path d="M 355.295232 263.568042 
L 364.627968 263.568042 
" clip-path="url(#p98fe813f6e)" style="fill: none; stroke: #353535; stroke-width: 1.5; stroke-linecap: square"/>
   </g>
   <g id="line2d_75">
    <path d="M 355.295232 225.698857 
L 364.627968 225.698857 
" clip-path="url(#p98fe813f6e)" style="fill: none; stroke: #353535; stroke-width: 1.5; stroke-linecap: square"/>
   </g>
   <g id="line2d_76">
    <g clip-path="url(#p98fe813f6e)">
     <use xlink:href="#mb9a9695982" x="359.9616" y="177.576785" style="fill: #353535; stroke: #353535; stroke-linejoin: miter"/>
    </g>
   </g>
   <g id="line2d_77">
    <path d="M 379.008 253.47374 
L 379.008 263.982021 
" clip-path="url(#p98fe813f6e)" style="fill: none; stroke: #353535; stroke-width: 1.5; stroke-linecap: square"/>
   </g>
   <g id="line2d_78">
    <path d="M 379.008 209.895306 
L 379.008 173.341259 
" clip-path="url(#p98fe813f6e)" style="fill: none; stroke: #353535; stroke-width: 1.5; stroke-linecap: square"/>
   </g>
   <g id="line2d_79">
    <path d="M 374.341632 263.982021 
L 383.674368 263.982021 
" clip-path="url(#p98fe813f6e)" style="fill: none; stroke: #353535; stroke-width: 1.5; stroke-linecap: square"/>
   </g>
   <g id="line2d_80">
    <path d="M 374.341632 173.341259 
L 383.674368 173.341259 
" clip-path="url(#p98fe813f6e)" style="fill: none; stroke: #353535; stroke-width: 1.5; stroke-linecap: square"/>
   </g>
   <g id="line2d_81"/>
   <g id="line2d_82">
    <path d="M 398.0544 249.023139 
L 398.0544 260.770663 
" clip-path="url(#p98fe813f6e)" style="fill: none; stroke: #353535; stroke-width: 1.5; stroke-linecap: square"/>
   </g>
   <g id="line2d_83">
    <path d="M 398.0544 204.707305 
L 398.0544 167.692598 
" clip-path="url(#p98fe813f6e)" style="fill: none; stroke: #353535; stroke-width: 1.5; stroke-linecap: square"/>
   </g>
   <g id="line2d_84">
    <path d="M 393.388032 260.770663 
L 402.720768 260.770663 
" clip-path="url(#p98fe813f6e)" style="fill: none; stroke: #353535; stroke-width: 1.5; stroke-linecap: square"/>
   </g>
   <g id="line2d_85">
    <path d="M 393.388032 167.692598 
L 402.720768 167.692598 
" clip-path="url(#p98fe813f6e)" style="fill: none; stroke: #353535; stroke-width: 1.5; stroke-linecap: square"/>
   </g>
   <g id="line2d_86"/>
   <g id="line2d_87">
    <path d="M 57.6 137.586387 
L 414.72 137.586387 
" clip-path="url(#p98fe813f6e)" style="fill: none; stroke: #ff0000; stroke-width: 1.5; stroke-linecap: square"/>
   </g>
   <g id="line2d_88">
    <path d="M 64.932864 138.820347 
L 83.598336 138.820347 
" clip-path="url(#p98fe813f6e)" style="fill: none; stroke: #353535; stroke-width: 1.5; stroke-linecap: square"/>
   </g>
   <g id="line2d_89">
    <path d="M 83.979264 156.185268 
L 102.644736 156.185268 
" clip-path="url(#p98fe813f6e)" style="fill: none; stroke: #353535; stroke-width: 1.5; stroke-linecap: square"/>
   </g>
   <g id="line2d_90">
    <path d="M 103.025664 156.661345 
L 121.691136 156.661345 
" clip-path="url(#p98fe813f6e)" style="fill: none; stroke: #353535; stroke-width: 1.5; stroke-linecap: square"/>
   </g>
   <g id="line2d_91">
    <path d="M 136.356864 164.504527 
L 155.022336 164.504527 
" clip-path="url(#p98fe813f6e)" style="fill: none; stroke: #353535; stroke-width: 1.5; stroke-linecap: square"/>
   </g>
   <g id="line2d_92">
    <path d="M 155.403264 162.226347 
L 174.068736 162.226347 
" clip-path="url(#p98fe813f6e)" style="fill: none; stroke: #353535; stroke-width: 1.5; stroke-linecap: square"/>
   </g>
   <g id="line2d_93">
    <path d="M 174.449664 175.696198 
L 193.115136 175.696198 
" clip-path="url(#p98fe813f6e)" style="fill: none; stroke: #353535; stroke-width: 1.5; stroke-linecap: square"/>
   </g>
   <g id="line2d_94">
    <path d="M 207.780864 187.405774 
L 226.446336 187.405774 
" clip-path="url(#p98fe813f6e)" style="fill: none; stroke: #353535; stroke-width: 1.5; stroke-linecap: square"/>
   </g>
   <g id="line2d_95">
    <path d="M 226.827264 160.7951 
L 245.492736 160.7951 
" clip-path="url(#p98fe813f6e)" style="fill: none; stroke: #353535; stroke-width: 1.5; stroke-linecap: square"/>
   </g>
   <g id="line2d_96">
    <path d="M 245.873664 176.0953 
L 264.539136 176.0953 
" clip-path="url(#p98fe813f6e)" style="fill: none; stroke: #353535; stroke-width: 1.5; stroke-linecap: square"/>
   </g>
   <g id="line2d_97">
    <path d="M 279.204864 219.328535 
L 297.870336 219.328535 
" clip-path="url(#p98fe813f6e)" style="fill: none; stroke: #353535; stroke-width: 1.5; stroke-linecap: square"/>
   </g>
   <g id="line2d_98">
    <path d="M 298.251264 200.009287 
L 316.916736 200.009287 
" clip-path="url(#p98fe813f6e)" style="fill: none; stroke: #353535; stroke-width: 1.5; stroke-linecap: square"/>
   </g>
   <g id="line2d_99">
    <path d="M 317.297664 213.282497 
L 335.963136 213.282497 
" clip-path="url(#p98fe813f6e)" style="fill: none; stroke: #353535; stroke-width: 1.5; stroke-linecap: square"/>
   </g>
   <g id="line2d_100">
    <path d="M 350.628864 245.010559 
L 369.294336 245.010559 
" clip-path="url(#p98fe813f6e)" style="fill: none; stroke: #353535; stroke-width: 1.5; stroke-linecap: square"/>
   </g>
   <g id="line2d_101">
    <path d="M 369.675264 238.76249 
L 388.340736 238.76249 
" clip-path="url(#p98fe813f6e)" style="fill: none; stroke: #353535; stroke-width: 1.5; stroke-linecap: square"/>
   </g>
   <g id="line2d_102">
    <path d="M 388.721664 234.234807 
L 407.387136 234.234807 
" clip-path="url(#p98fe813f6e)" style="fill: none; stroke: #353535; stroke-width: 1.5; stroke-linecap: square"/>
   </g>
   <g id="patch_21">
    <path d="M 57.6 307.584 
L 57.6 41.472 
" style="fill: none; stroke: #000000; stroke-width: 0.8; stroke-linejoin: miter; stroke-linecap: square"/>
   </g>
   <g id="patch_22">
    <path d="M 414.72 307.584 
L 414.72 41.472 
" style="fill: none; stroke: #000000; stroke-width: 0.8; stroke-linejoin: miter; stroke-linecap: square"/>
   </g>
   <g id="patch_23">
    <path d="M 57.6 307.584 
L 414.72 307.584 
" style="fill: none; stroke: #000000; stroke-width: 0.8; stroke-linejoin: miter; stroke-linecap: square"/>
   </g>
   <g id="patch_24">
    <path d="M 57.6 41.472 
L 414.72 41.472 
" style="fill: none; stroke: #000000; stroke-width: 0.8; stroke-linejoin: miter; stroke-linecap: square"/>
   </g>
   <g id="legend_1">
    <g id="patch_25">
     <path d="M 315.323125 108.1845 
L 407.72 108.1845 
Q 409.72 108.1845 409.72 106.1845 
L 409.72 48.472 
Q 409.72 46.472 407.72 46.472 
L 315.323125 46.472 
Q 313.323125 46.472 313.323125 48.472 
L 313.323125 106.1845 
Q 313.323125 108.1845 315.323125 108.1845 
z
" style="fill: #ffffff; opacity: 0.8; stroke: #cccccc; stroke-linejoin: miter"/>
    </g>
    <g id="text_14">
     <!-- model -->
     <g transform="translate(345.952031 58.070438) scale(0.1 -0.1)">
      <defs>
       <path id="DejaVuSans-6d" d="M 3328 2828 
Q 3544 3216 3844 3400 
Q 4144 3584 4550 3584 
Q 5097 3584 5394 3201 
Q 5691 2819 5691 2113 
L 5691 0 
L 5113 0 
L 5113 2094 
Q 5113 2597 4934 2840 
Q 4756 3084 4391 3084 
Q 3944 3084 3684 2787 
Q 3425 2491 3425 1978 
L 3425 0 
L 2847 0 
L 2847 2094 
Q 2847 2600 2669 2842 
Q 2491 3084 2119 3084 
Q 1678 3084 1418 2786 
Q 1159 2488 1159 1978 
L 1159 0 
L 581 0 
L 581 3500 
L 1159 3500 
L 1159 2956 
Q 1356 3278 1631 3431 
Q 1906 3584 2284 3584 
Q 2666 3584 2933 3390 
Q 3200 3197 3328 2828 
z
" transform="scale(0.015625)"/>
       <path id="DejaVuSans-6f" d="M 1959 3097 
Q 1497 3097 1228 2736 
Q 959 2375 959 1747 
Q 959 1119 1226 758 
Q 1494 397 1959 397 
Q 2419 397 2687 759 
Q 2956 1122 2956 1747 
Q 2956 2369 2687 2733 
Q 2419 3097 1959 3097 
z
M 1959 3584 
Q 2709 3584 3137 3096 
Q 3566 2609 3566 1747 
Q 3566 888 3137 398 
Q 2709 -91 1959 -91 
Q 1206 -91 779 398 
Q 353 888 353 1747 
Q 353 2609 779 3096 
Q 1206 3584 1959 3584 
z
" transform="scale(0.015625)"/>
       <path id="DejaVuSans-6c" d="M 603 4863 
L 1178 4863 
L 1178 0 
L 603 0 
L 603 4863 
z
" transform="scale(0.015625)"/>
      </defs>
      <use xlink:href="#DejaVuSans-6d"/>
      <use xlink:href="#DejaVuSans-6f" x="97.412109"/>
      <use xlink:href="#DejaVuSans-64" x="158.59375"/>
      <use xlink:href="#DejaVuSans-65" x="222.070312"/>
      <use xlink:href="#DejaVuSans-6c" x="283.59375"/>
     </g>
    </g>
    <g id="patch_26">
     <path d="M 317.323125 72.748563 
L 337.323125 72.748563 
L 337.323125 65.748563 
L 317.323125 65.748563 
z
" style="fill: #455681; stroke: #353535; stroke-width: 0.75; stroke-linejoin: miter"/>
    </g>
    <g id="text_15">
     <!-- Manual Diff -->
     <g transform="translate(345.323125 72.748563) scale(0.1 -0.1)">
      <defs>
       <path id="DejaVuSans-6e" d="M 3513 2113 
L 3513 0 
L 2938 0 
L 2938 2094 
Q 2938 2591 2744 2837 
Q 2550 3084 2163 3084 
Q 1697 3084 1428 2787 
Q 1159 2491 1159 1978 
L 1159 0 
L 581 0 
L 581 3500 
L 1159 3500 
L 1159 2956 
Q 1366 3272 1645 3428 
Q 1925 3584 2291 3584 
Q 2894 3584 3203 3211 
Q 3513 2838 3513 2113 
z
" transform="scale(0.015625)"/>
       <path id="DejaVuSans-75" d="M 544 1381 
L 544 3500 
L 1119 3500 
L 1119 1403 
Q 1119 906 1312 657 
Q 1506 409 1894 409 
Q 2359 409 2629 706 
Q 2900 1003 2900 1516 
L 2900 3500 
L 3475 3500 
L 3475 0 
L 2900 0 
L 2900 538 
Q 2691 219 2414 64 
Q 2138 -91 1772 -91 
Q 1169 -91 856 284 
Q 544 659 544 1381 
z
M 1991 3584 
L 1991 3584 
z
" transform="scale(0.015625)"/>
       <path id="DejaVuSans-44" d="M 1259 4147 
L 1259 519 
L 2022 519 
Q 2988 519 3436 956 
Q 3884 1394 3884 2338 
Q 3884 3275 3436 3711 
Q 2988 4147 2022 4147 
L 1259 4147 
z
M 628 4666 
L 1925 4666 
Q 3281 4666 3915 4102 
Q 4550 3538 4550 2338 
Q 4550 1131 3912 565 
Q 3275 0 1925 0 
L 628 0 
L 628 4666 
z
" transform="scale(0.015625)"/>
      </defs>
      <use xlink:href="#DejaVuSans-4d"/>
      <use xlink:href="#DejaVuSans-61" x="86.279297"/>
      <use xlink:href="#DejaVuSans-6e" x="147.558594"/>
      <use xlink:href="#DejaVuSans-75" x="210.9375"/>
      <use xlink:href="#DejaVuSans-61" x="274.316406"/>
      <use xlink:href="#DejaVuSans-6c" x="335.595703"/>
      <use xlink:href="#DejaVuSans-20" x="363.378906"/>
      <use xlink:href="#DejaVuSans-44" x="395.166016"/>
      <use xlink:href="#DejaVuSans-69" x="472.167969"/>
      <use xlink:href="#DejaVuSans-66" x="499.951172"/>
      <use xlink:href="#DejaVuSans-66" x="535.15625"/>
     </g>
    </g>
    <g id="patch_27">
     <path d="M 317.323125 87.426688 
L 337.323125 87.426688 
L 337.323125 80.426688 
L 317.323125 80.426688 
z
" style="fill: #2f837f; stroke: #353535; stroke-width: 0.75; stroke-linejoin: miter"/>
    </g>
    <g id="text_16">
     <!-- SNOTEL Diff -->
     <g transform="translate(345.323125 87.426688) scale(0.1 -0.1)">
      <defs>
       <path id="DejaVuSans-53" d="M 3425 4513 
L 3425 3897 
Q 3066 4069 2747 4153 
Q 2428 4238 2131 4238 
Q 1616 4238 1336 4038 
Q 1056 3838 1056 3469 
Q 1056 3159 1242 3001 
Q 1428 2844 1947 2747 
L 2328 2669 
Q 3034 2534 3370 2195 
Q 3706 1856 3706 1288 
Q 3706 609 3251 259 
Q 2797 -91 1919 -91 
Q 1588 -91 1214 -16 
Q 841 59 441 206 
L 441 856 
Q 825 641 1194 531 
Q 1563 422 1919 422 
Q 2459 422 2753 634 
Q 3047 847 3047 1241 
Q 3047 1584 2836 1778 
Q 2625 1972 2144 2069 
L 1759 2144 
Q 1053 2284 737 2584 
Q 422 2884 422 3419 
Q 422 4038 858 4394 
Q 1294 4750 2059 4750 
Q 2388 4750 2728 4690 
Q 3069 4631 3425 4513 
z
" transform="scale(0.015625)"/>
       <path id="DejaVuSans-4e" d="M 628 4666 
L 1478 4666 
L 3547 763 
L 3547 4666 
L 4159 4666 
L 4159 0 
L 3309 0 
L 1241 3903 
L 1241 0 
L 628 0 
L 628 4666 
z
" transform="scale(0.015625)"/>
       <path id="DejaVuSans-4f" d="M 2522 4238 
Q 1834 4238 1429 3725 
Q 1025 3213 1025 2328 
Q 1025 1447 1429 934 
Q 1834 422 2522 422 
Q 3209 422 3611 934 
Q 4013 1447 4013 2328 
Q 4013 3213 3611 3725 
Q 3209 4238 2522 4238 
z
M 2522 4750 
Q 3503 4750 4090 4092 
Q 4678 3434 4678 2328 
Q 4678 1225 4090 567 
Q 3503 -91 2522 -91 
Q 1538 -91 948 565 
Q 359 1222 359 2328 
Q 359 3434 948 4092 
Q 1538 4750 2522 4750 
z
" transform="scale(0.015625)"/>
       <path id="DejaVuSans-54" d="M -19 4666 
L 3928 4666 
L 3928 4134 
L 2272 4134 
L 2272 0 
L 1638 0 
L 1638 4134 
L -19 4134 
L -19 4666 
z
" transform="scale(0.015625)"/>
       <path id="DejaVuSans-45" d="M 628 4666 
L 3578 4666 
L 3578 4134 
L 1259 4134 
L 1259 2753 
L 3481 2753 
L 3481 2222 
L 1259 2222 
L 1259 531 
L 3634 531 
L 3634 0 
L 628 0 
L 628 4666 
z
" transform="scale(0.015625)"/>
       <path id="DejaVuSans-4c" d="M 628 4666 
L 1259 4666 
L 1259 531 
L 3531 531 
L 3531 0 
L 628 0 
L 628 4666 
z
" transform="scale(0.015625)"/>
      </defs>
      <use xlink:href="#DejaVuSans-53"/>
      <use xlink:href="#DejaVuSans-4e" x="63.476562"/>
      <use xlink:href="#DejaVuSans-4f" x="138.28125"/>
      <use xlink:href="#DejaVuSans-54" x="216.992188"/>
      <use xlink:href="#DejaVuSans-45" x="278.076172"/>
      <use xlink:href="#DejaVuSans-4c" x="341.259766"/>
      <use xlink:href="#DejaVuSans-20" x="396.972656"/>
      <use xlink:href="#DejaVuSans-44" x="428.759766"/>
      <use xlink:href="#DejaVuSans-69" x="505.761719"/>
      <use xlink:href="#DejaVuSans-66" x="533.544922"/>
      <use xlink:href="#DejaVuSans-66" x="568.75"/>
     </g>
    </g>
    <g id="patch_28">
     <path d="M 317.323125 102.104813 
L 337.323125 102.104813 
L 337.323125 95.104813 
L 317.323125 95.104813 
z
" style="fill: #6cbc6e; stroke: #353535; stroke-width: 0.75; stroke-linejoin: miter"/>
    </g>
    <g id="text_17">
     <!-- $\Delta$SNOW Diff -->
     <g transform="translate(345.323125 102.104813) scale(0.1 -0.1)">
      <defs>
       <path id="DejaVuSans-394" d="M 2188 4044 
L 906 525 
L 3472 525 
L 2188 4044 
z
M 50 0 
L 1831 4666 
L 2547 4666 
L 4325 0 
L 50 0 
z
" transform="scale(0.015625)"/>
       <path id="DejaVuSans-57" d="M 213 4666 
L 850 4666 
L 1831 722 
L 2809 4666 
L 3519 4666 
L 4500 722 
L 5478 4666 
L 6119 4666 
L 4947 0 
L 4153 0 
L 3169 4050 
L 2175 0 
L 1381 0 
L 213 4666 
z
" transform="scale(0.015625)"/>
      </defs>
      <use xlink:href="#DejaVuSans-394" transform="translate(0 0.015625)"/>
      <use xlink:href="#DejaVuSans-53" transform="translate(68.408203 0.015625)"/>
      <use xlink:href="#DejaVuSans-4e" transform="translate(131.884766 0.015625)"/>
      <use xlink:href="#DejaVuSans-4f" transform="translate(206.689453 0.015625)"/>
      <use xlink:href="#DejaVuSans-57" transform="translate(285.400391 0.015625)"/>
      <use xlink:href="#DejaVuSans-20" transform="translate(384.277344 0.015625)"/>
      <use xlink:href="#DejaVuSans-44" transform="translate(416.064453 0.015625)"/>
      <use xlink:href="#DejaVuSans-69" transform="translate(493.066406 0.015625)"/>
      <use xlink:href="#DejaVuSans-66" transform="translate(520.849609 0.015625)"/>
      <use xlink:href="#DejaVuSans-66" transform="translate(556.054688 0.015625)"/>
     </g>
    </g>
   </g>
  </g>
 </g>
 <defs>
  <clipPath id="p98fe813f6e">
   <rect x="57.6" y="41.472" width="357.12" height="266.112"/>
  </clipPath>
 </defs>
</svg>
