<?xml version="1.0" encoding="utf-8" standalone="no"?>
<!DOCTYPE svg PUBLIC "-//W3C//DTD SVG 1.1//EN"
  "http://www.w3.org/Graphics/SVG/1.1/DTD/svg11.dtd">
<svg xmlns:xlink="http://www.w3.org/1999/xlink" width="360pt" height="360pt" viewBox="0 0 360 360" xmlns="http://www.w3.org/2000/svg" version="1.1">
 <metadata>
  <rdf:RDF xmlns:dc="http://purl.org/dc/elements/1.1/" xmlns:cc="http://creativecommons.org/ns#" xmlns:rdf="http://www.w3.org/1999/02/22-rdf-syntax-ns#">
   <cc:Work>
    <dc:type rdf:resource="http://purl.org/dc/dcmitype/StillImage"/>
    <dc:date>2023-11-14T10:54:17.765283</dc:date>
    <dc:format>image/svg+xml</dc:format>
    <dc:creator>
     <cc:Agent>
      <dc:title>Matplotlib v3.7.1, https://matplotlib.org/</dc:title>
     </cc:Agent>
    </dc:creator>
   </cc:Work>
  </rdf:RDF>
 </metadata>
 <defs>
  <style type="text/css">*{stroke-linejoin: round; stroke-linecap: butt}</style>
 </defs>
 <g id="figure_1">
  <g id="patch_1">
   <path d="M 0 360 
L 360 360 
L 360 0 
L 0 0 
z
" style="fill: #ffffff"/>
  </g>
  <g id="axes_1">
   <g id="patch_2">
    <path d="M 57.44 318.04 
L 332.762878 318.04 
L 332.762878 10.8 
L 57.44 10.8 
z
" style="fill: #ffffff"/>
   </g>
   <g id="PolyCollection_1">
    <defs>
     <path id="md9671b5548" d="M 57.456319 -55.925455 
L 57.44 -55.925455 
L 57.44 -57.329018 
L 57.44 -58.732581 
L 57.44 -60.136144 
L 57.44 -61.539708 
L 57.44 -62.943271 
L 57.44 -64.346834 
L 57.44 -65.750397 
L 57.44 -67.153961 
L 57.44 -68.557524 
L 57.44 -69.961087 
L 57.44 -71.364651 
L 57.44 -72.768214 
L 57.44 -74.171777 
L 57.44 -75.57534 
L 57.44 -76.978904 
L 57.44 -78.382467 
L 57.44 -79.78603 
L 57.44 -81.189593 
L 57.44 -82.593157 
L 57.44 -83.99672 
L 57.44 -85.400283 
L 57.44 -86.803847 
L 57.44 -88.20741 
L 57.44 -89.610973 
L 57.44 -91.014536 
L 57.44 -92.4181 
L 57.44 -93.821663 
L 57.44 -95.225226 
L 57.44 -96.628789 
L 57.44 -98.032353 
L 57.44 -99.435916 
L 57.44 -100.839479 
L 57.44 -102.243042 
L 57.44 -103.646606 
L 57.44 -105.050169 
L 57.44 -106.453732 
L 57.44 -107.857296 
L 57.44 -109.260859 
L 57.44 -110.664422 
L 57.44 -112.067985 
L 57.44 -113.471549 
L 57.44 -114.875112 
L 57.44 -116.278675 
L 57.44 -117.682238 
L 57.44 -119.085802 
L 57.44 -120.489365 
L 57.44 -121.892928 
L 57.44 -123.296492 
L 57.44 -124.700055 
L 57.44 -126.103618 
L 57.44 -127.507181 
L 57.44 -128.910745 
L 57.44 -130.314308 
L 57.44 -131.717871 
L 57.44 -133.121434 
L 57.44 -134.524998 
L 57.44 -135.928561 
L 57.44 -137.332124 
L 57.44 -138.735688 
L 57.44 -140.139251 
L 57.44 -141.542814 
L 57.44 -142.946377 
L 57.44 -144.349941 
L 57.44 -145.753504 
L 57.44 -147.157067 
L 57.44 -148.56063 
L 57.44 -149.964194 
L 57.44 -151.367757 
L 57.44 -152.77132 
L 57.44 -154.174884 
L 57.44 -155.578447 
L 57.44 -156.98201 
L 57.44 -158.385573 
L 57.44 -159.789137 
L 57.44 -161.1927 
L 57.44 -162.596263 
L 57.44 -163.999826 
L 57.44 -165.40339 
L 57.44 -166.806953 
L 57.44 -168.210516 
L 57.44 -169.614079 
L 57.44 -171.017643 
L 57.44 -172.421206 
L 57.44 -173.824769 
L 57.44 -175.228333 
L 57.44 -176.631896 
L 57.44 -178.035459 
L 57.44 -179.439022 
L 57.44 -180.842586 
L 57.44 -182.246149 
L 57.44 -183.649712 
L 57.44 -185.053275 
L 57.44 -186.456839 
L 57.44 -187.860402 
L 57.44 -189.263965 
L 57.44 -190.667529 
L 57.44 -192.071092 
L 57.44 -193.474655 
L 57.44 -194.878218 
L 57.44 -196.281782 
L 57.44 -197.685345 
L 57.44 -199.088908 
L 57.44 -200.492471 
L 57.44 -201.896035 
L 57.44 -203.299598 
L 57.44 -204.703161 
L 57.44 -206.106725 
L 57.44 -207.510288 
L 57.44 -208.913851 
L 57.44 -210.317414 
L 57.44 -211.720978 
L 57.44 -213.124541 
L 57.44 -214.528104 
L 57.44 -215.931667 
L 57.44 -217.335231 
L 57.44 -218.738794 
L 57.44 -220.142357 
L 57.44 -221.545921 
L 57.44 -222.949484 
L 57.44 -224.353047 
L 57.44 -225.75661 
L 57.44 -227.160174 
L 57.44 -228.563737 
L 57.44 -229.9673 
L 57.44 -231.370863 
L 57.44 -232.774427 
L 57.44 -234.17799 
L 57.44 -235.581553 
L 57.44 -236.985116 
L 57.44 -238.38868 
L 57.44 -239.792243 
L 57.44 -241.195806 
L 57.44 -242.59937 
L 57.44 -244.002933 
L 57.44 -245.406496 
L 57.44 -246.810059 
L 57.44 -248.213623 
L 57.44 -249.617186 
L 57.44 -251.020749 
L 57.44 -252.424312 
L 57.44 -253.827876 
L 57.44 -255.231439 
L 57.44 -256.635002 
L 57.44 -258.038566 
L 57.44 -259.442129 
L 57.44 -260.845692 
L 57.44 -262.249255 
L 57.44 -263.652819 
L 57.44 -265.056382 
L 57.44 -266.459945 
L 57.44 -267.863508 
L 57.44 -269.267072 
L 57.44 -270.670635 
L 57.44 -272.074198 
L 57.44 -273.477762 
L 57.44 -274.881325 
L 57.44 -276.284888 
L 57.44 -277.688451 
L 57.44 -279.092015 
L 57.44 -280.495578 
L 57.44 -281.899141 
L 57.44 -283.302704 
L 57.44 -284.706268 
L 57.44 -286.109831 
L 57.44 -287.513394 
L 57.44 -288.916958 
L 57.44 -290.320521 
L 57.44 -291.724084 
L 57.44 -293.127647 
L 57.44 -294.531211 
L 57.44 -295.934774 
L 57.44 -297.338337 
L 57.44 -298.7419 
L 57.44 -300.145464 
L 57.44 -301.549027 
L 57.44 -302.95259 
L 57.44 -304.356153 
L 57.44 -305.759717 
L 57.44 -307.16328 
L 57.44 -308.566843 
L 57.44 -309.970407 
L 57.44 -311.37397 
L 57.44 -312.777533 
L 57.44 -314.181096 
L 57.44 -315.58466 
L 57.44 -316.988223 
L 57.44 -318.391786 
L 57.44 -319.795349 
L 57.44 -321.198913 
L 57.44 -322.602476 
L 57.44 -324.006039 
L 57.44 -325.409603 
L 57.44 -326.813166 
L 57.44 -328.216729 
L 57.44 -329.620292 
L 57.44 -331.023856 
L 57.44 -332.427419 
L 57.44 -333.830982 
L 57.44 -335.234545 
L 57.440124 -335.234545 
L 57.440124 -335.234545 
L 57.440778 -333.830982 
L 57.443613 -332.427419 
L 57.452714 -331.023856 
L 57.47533 -329.620292 
L 57.522355 -328.216729 
L 57.611718 -326.813166 
L 57.771764 -325.409603 
L 58.031227 -324.006039 
L 58.396654 -322.602476 
L 58.842793 -321.198913 
L 59.325511 -319.795349 
L 59.799387 -318.391786 
L 60.23486 -316.988223 
L 60.640315 -315.58466 
L 61.072878 -314.181096 
L 61.613275 -312.777533 
L 62.311132 -311.37397 
L 63.148474 -309.970407 
L 64.052989 -308.566843 
L 64.930397 -307.16328 
L 65.688006 -305.759717 
L 66.270341 -304.356153 
L 66.708256 -302.95259 
L 67.120043 -301.549027 
L 67.628164 -300.145464 
L 68.273978 -298.7419 
L 69.02716 -297.338337 
L 69.847016 -295.934774 
L 70.705817 -294.531211 
L 71.58017 -293.127647 
L 72.444429 -291.724084 
L 73.272425 -290.320521 
L 74.063279 -288.916958 
L 74.873364 -287.513394 
L 75.80367 -286.109831 
L 76.941696 -284.706268 
L 78.297304 -283.302704 
L 79.787464 -281.899141 
L 81.316766 -280.495578 
L 82.884029 -279.092015 
L 84.574274 -277.688451 
L 86.461527 -276.284888 
L 88.581539 -274.881325 
L 90.978239 -273.477762 
L 93.696723 -272.074198 
L 96.708068 -270.670635 
L 99.852889 -269.267072 
L 102.884338 -267.863508 
L 105.619632 -266.459945 
L 108.05424 -265.056382 
L 110.305497 -263.652819 
L 112.482385 -262.249255 
L 114.624335 -260.845692 
L 116.722402 -259.442129 
L 118.799495 -258.038566 
L 120.953746 -256.635002 
L 123.204844 -255.231439 
L 125.268134 -253.827876 
L 126.673164 -252.424312 
L 127.21595 -251.020749 
L 127.143959 -249.617186 
L 126.881893 -248.213623 
L 126.780347 -246.810059 
L 127.082923 -245.406496 
L 127.907367 -244.002933 
L 129.255295 -242.59937 
L 131.098709 -241.195806 
L 133.336739 -239.792243 
L 135.67775 -238.38868 
L 137.815934 -236.985116 
L 139.721996 -235.581553 
L 141.504772 -234.17799 
L 143.078083 -232.774427 
L 144.302144 -231.370863 
L 145.350721 -229.9673 
L 146.566909 -228.563737 
L 148.064155 -227.160174 
L 149.755249 -225.75661 
L 151.613681 -224.353047 
L 153.688493 -222.949484 
L 155.9703 -221.545921 
L 158.391784 -220.142357 
L 160.898141 -218.738794 
L 163.382061 -217.335231 
L 165.646753 -215.931667 
L 167.640555 -214.528104 
L 169.636594 -213.124541 
L 171.950987 -211.720978 
L 174.521987 -210.317414 
L 176.936525 -208.913851 
L 178.865465 -207.510288 
L 180.360547 -206.106725 
L 181.692802 -204.703161 
L 182.967824 -203.299598 
L 184.067064 -201.896035 
L 185.058336 -200.492471 
L 186.393989 -199.088908 
L 188.428717 -197.685345 
L 190.925285 -196.281782 
L 193.31768 -194.878218 
L 195.3891 -193.474655 
L 197.468465 -192.071092 
L 199.99743 -190.667529 
L 203.077194 -189.263965 
L 206.384769 -187.860402 
L 209.380303 -186.456839 
L 211.655193 -185.053275 
L 213.245519 -183.649712 
L 214.595799 -182.246149 
L 216.149002 -180.842586 
L 218.012418 -179.439022 
L 219.988947 -178.035459 
L 221.902628 -176.631896 
L 223.998309 -175.228333 
L 226.97085 -173.824769 
L 231.365448 -172.421206 
L 236.940868 -171.017643 
L 242.826364 -169.614079 
L 248.31321 -168.210516 
L 253.394302 -166.806953 
L 258.643866 -165.40339 
L 264.785066 -163.999826 
L 272.333558 -162.596263 
L 281.303085 -161.1927 
L 290.986308 -159.789137 
L 300.087033 -158.385573 
L 307.347546 -156.98201 
L 312.285026 -155.578447 
L 315.233039 -154.174884 
L 316.658425 -152.77132 
L 316.970752 -151.367757 
L 316.992692 -149.964194 
L 317.627236 -148.56063 
L 318.847982 -147.157067 
L 319.652265 -145.753504 
L 318.938357 -144.349941 
L 316.07803 -142.946377 
L 310.68156 -141.542814 
L 302.176074 -140.139251 
L 290.345127 -138.735688 
L 276.432114 -137.332124 
L 262.973497 -135.928561 
L 252.212222 -134.524998 
L 244.894061 -133.121434 
L 240.386042 -131.717871 
L 237.407482 -130.314308 
L 234.551703 -128.910745 
L 230.684357 -127.507181 
L 225.533446 -126.103618 
L 219.768533 -124.700055 
L 214.035372 -123.296492 
L 208.312042 -121.892928 
L 202.614254 -120.489365 
L 197.624066 -119.085802 
L 193.977613 -117.682238 
L 191.424807 -116.278675 
L 189.304525 -114.875112 
L 187.559684 -113.471549 
L 186.865397 -112.067985 
L 188.027539 -110.664422 
L 191.432243 -109.260859 
L 196.814141 -107.857296 
L 203.601175 -106.453732 
L 211.486518 -105.050169 
L 220.311363 -103.646606 
L 229.598156 -102.243042 
L 238.705249 -100.839479 
L 247.300765 -99.435916 
L 255.298351 -98.032353 
L 262.276908 -96.628789 
L 267.350949 -95.225226 
L 269.889376 -93.821663 
L 269.949709 -92.4181 
L 267.879402 -91.014536 
L 263.970096 -89.610973 
L 258.215348 -88.20741 
L 249.969347 -86.803847 
L 238.554912 -85.400283 
L 224.562177 -83.99672 
L 209.851552 -82.593157 
L 196.158602 -81.189593 
L 184.253883 -79.78603 
L 174.65804 -78.382467 
L 168.457248 -76.978904 
L 166.026956 -75.57534 
L 164.999379 -74.171777 
L 161.203254 -72.768214 
L 152.083048 -71.364651 
L 138.468613 -69.961087 
L 123.224107 -68.557524 
L 108.741525 -67.153961 
L 95.538353 -65.750397 
L 83.159339 -64.346834 
L 72.178261 -62.943271 
L 64.180444 -61.539708 
L 59.797756 -60.136144 
L 58.054508 -58.732581 
L 57.557484 -57.329018 
L 57.456319 -55.925455 
z
" style="stroke: #1f77b4"/>
    </defs>
    <g clip-path="url(#pe57698bd8b)">
     <use xlink:href="#md9671b5548" x="0" y="360" style="fill: #1f77b4; fill-opacity: 0.25; stroke: #1f77b4"/>
    </g>
   </g>
   <g id="matplotlib.axis_1">
    <g id="xtick_1">
     <g id="line2d_1">
      <defs>
       <path id="m14868749be" d="M 0 0 
L 0 3.5 
" style="stroke: #000000; stroke-width: 0.8"/>
      </defs>
      <g>
       <use xlink:href="#m14868749be" x="57.44" y="318.04" style="stroke: #000000; stroke-width: 0.8"/>
      </g>
     </g>
     <g id="text_1">
      <!-- 0.0000 -->
      <g transform="translate(39.944688 332.638438) scale(0.1 -0.1)">
       <defs>
        <path id="DejaVuSans-30" d="M 2034 4250 
Q 1547 4250 1301 3770 
Q 1056 3291 1056 2328 
Q 1056 1369 1301 889 
Q 1547 409 2034 409 
Q 2525 409 2770 889 
Q 3016 1369 3016 2328 
Q 3016 3291 2770 3770 
Q 2525 4250 2034 4250 
z
M 2034 4750 
Q 2819 4750 3233 4129 
Q 3647 3509 3647 2328 
Q 3647 1150 3233 529 
Q 2819 -91 2034 -91 
Q 1250 -91 836 529 
Q 422 1150 422 2328 
Q 422 3509 836 4129 
Q 1250 4750 2034 4750 
z
" transform="scale(0.015625)"/>
        <path id="DejaVuSans-2e" d="M 684 794 
L 1344 794 
L 1344 0 
L 684 0 
L 684 794 
z
" transform="scale(0.015625)"/>
       </defs>
       <use xlink:href="#DejaVuSans-30"/>
       <use xlink:href="#DejaVuSans-2e" x="63.623047"/>
       <use xlink:href="#DejaVuSans-30" x="95.410156"/>
       <use xlink:href="#DejaVuSans-30" x="159.033203"/>
       <use xlink:href="#DejaVuSans-30" x="222.65625"/>
       <use xlink:href="#DejaVuSans-30" x="286.279297"/>
      </g>
     </g>
    </g>
    <g id="xtick_2">
     <g id="line2d_2">
      <g>
       <use xlink:href="#m14868749be" x="91.730809" y="318.04" style="stroke: #000000; stroke-width: 0.8"/>
      </g>
     </g>
     <g id="text_2">
      <!-- 0.0002 -->
      <g transform="translate(74.235496 332.638438) scale(0.1 -0.1)">
       <defs>
        <path id="DejaVuSans-32" d="M 1228 531 
L 3431 531 
L 3431 0 
L 469 0 
L 469 531 
Q 828 903 1448 1529 
Q 2069 2156 2228 2338 
Q 2531 2678 2651 2914 
Q 2772 3150 2772 3378 
Q 2772 3750 2511 3984 
Q 2250 4219 1831 4219 
Q 1534 4219 1204 4116 
Q 875 4013 500 3803 
L 500 4441 
Q 881 4594 1212 4672 
Q 1544 4750 1819 4750 
Q 2544 4750 2975 4387 
Q 3406 4025 3406 3419 
Q 3406 3131 3298 2873 
Q 3191 2616 2906 2266 
Q 2828 2175 2409 1742 
Q 1991 1309 1228 531 
z
" transform="scale(0.015625)"/>
       </defs>
       <use xlink:href="#DejaVuSans-30"/>
       <use xlink:href="#DejaVuSans-2e" x="63.623047"/>
       <use xlink:href="#DejaVuSans-30" x="95.410156"/>
       <use xlink:href="#DejaVuSans-30" x="159.033203"/>
       <use xlink:href="#DejaVuSans-30" x="222.65625"/>
       <use xlink:href="#DejaVuSans-32" x="286.279297"/>
      </g>
     </g>
    </g>
    <g id="xtick_3">
     <g id="line2d_3">
      <g>
       <use xlink:href="#m14868749be" x="126.021617" y="318.04" style="stroke: #000000; stroke-width: 0.8"/>
      </g>
     </g>
     <g id="text_3">
      <!-- 0.0004 -->
      <g transform="translate(108.526305 332.638438) scale(0.1 -0.1)">
       <defs>
        <path id="DejaVuSans-34" d="M 2419 4116 
L 825 1625 
L 2419 1625 
L 2419 4116 
z
M 2253 4666 
L 3047 4666 
L 3047 1625 
L 3713 1625 
L 3713 1100 
L 3047 1100 
L 3047 0 
L 2419 0 
L 2419 1100 
L 313 1100 
L 313 1709 
L 2253 4666 
z
" transform="scale(0.015625)"/>
       </defs>
       <use xlink:href="#DejaVuSans-30"/>
       <use xlink:href="#DejaVuSans-2e" x="63.623047"/>
       <use xlink:href="#DejaVuSans-30" x="95.410156"/>
       <use xlink:href="#DejaVuSans-30" x="159.033203"/>
       <use xlink:href="#DejaVuSans-30" x="222.65625"/>
       <use xlink:href="#DejaVuSans-34" x="286.279297"/>
      </g>
     </g>
    </g>
    <g id="xtick_4">
     <g id="line2d_4">
      <g>
       <use xlink:href="#m14868749be" x="160.312426" y="318.04" style="stroke: #000000; stroke-width: 0.8"/>
      </g>
     </g>
     <g id="text_4">
      <!-- 0.0006 -->
      <g transform="translate(142.817113 332.638438) scale(0.1 -0.1)">
       <defs>
        <path id="DejaVuSans-36" d="M 2113 2584 
Q 1688 2584 1439 2293 
Q 1191 2003 1191 1497 
Q 1191 994 1439 701 
Q 1688 409 2113 409 
Q 2538 409 2786 701 
Q 3034 994 3034 1497 
Q 3034 2003 2786 2293 
Q 2538 2584 2113 2584 
z
M 3366 4563 
L 3366 3988 
Q 3128 4100 2886 4159 
Q 2644 4219 2406 4219 
Q 1781 4219 1451 3797 
Q 1122 3375 1075 2522 
Q 1259 2794 1537 2939 
Q 1816 3084 2150 3084 
Q 2853 3084 3261 2657 
Q 3669 2231 3669 1497 
Q 3669 778 3244 343 
Q 2819 -91 2113 -91 
Q 1303 -91 875 529 
Q 447 1150 447 2328 
Q 447 3434 972 4092 
Q 1497 4750 2381 4750 
Q 2619 4750 2861 4703 
Q 3103 4656 3366 4563 
z
" transform="scale(0.015625)"/>
       </defs>
       <use xlink:href="#DejaVuSans-30"/>
       <use xlink:href="#DejaVuSans-2e" x="63.623047"/>
       <use xlink:href="#DejaVuSans-30" x="95.410156"/>
       <use xlink:href="#DejaVuSans-30" x="159.033203"/>
       <use xlink:href="#DejaVuSans-30" x="222.65625"/>
       <use xlink:href="#DejaVuSans-36" x="286.279297"/>
      </g>
     </g>
    </g>
    <g id="xtick_5">
     <g id="line2d_5">
      <g>
       <use xlink:href="#m14868749be" x="194.603234" y="318.04" style="stroke: #000000; stroke-width: 0.8"/>
      </g>
     </g>
     <g id="text_5">
      <!-- 0.0008 -->
      <g transform="translate(177.107922 332.638438) scale(0.1 -0.1)">
       <defs>
        <path id="DejaVuSans-38" d="M 2034 2216 
Q 1584 2216 1326 1975 
Q 1069 1734 1069 1313 
Q 1069 891 1326 650 
Q 1584 409 2034 409 
Q 2484 409 2743 651 
Q 3003 894 3003 1313 
Q 3003 1734 2745 1975 
Q 2488 2216 2034 2216 
z
M 1403 2484 
Q 997 2584 770 2862 
Q 544 3141 544 3541 
Q 544 4100 942 4425 
Q 1341 4750 2034 4750 
Q 2731 4750 3128 4425 
Q 3525 4100 3525 3541 
Q 3525 3141 3298 2862 
Q 3072 2584 2669 2484 
Q 3125 2378 3379 2068 
Q 3634 1759 3634 1313 
Q 3634 634 3220 271 
Q 2806 -91 2034 -91 
Q 1263 -91 848 271 
Q 434 634 434 1313 
Q 434 1759 690 2068 
Q 947 2378 1403 2484 
z
M 1172 3481 
Q 1172 3119 1398 2916 
Q 1625 2713 2034 2713 
Q 2441 2713 2670 2916 
Q 2900 3119 2900 3481 
Q 2900 3844 2670 4047 
Q 2441 4250 2034 4250 
Q 1625 4250 1398 4047 
Q 1172 3844 1172 3481 
z
" transform="scale(0.015625)"/>
       </defs>
       <use xlink:href="#DejaVuSans-30"/>
       <use xlink:href="#DejaVuSans-2e" x="63.623047"/>
       <use xlink:href="#DejaVuSans-30" x="95.410156"/>
       <use xlink:href="#DejaVuSans-30" x="159.033203"/>
       <use xlink:href="#DejaVuSans-30" x="222.65625"/>
       <use xlink:href="#DejaVuSans-38" x="286.279297"/>
      </g>
     </g>
    </g>
    <g id="xtick_6">
     <g id="line2d_6">
      <g>
       <use xlink:href="#m14868749be" x="228.894043" y="318.04" style="stroke: #000000; stroke-width: 0.8"/>
      </g>
     </g>
     <g id="text_6">
      <!-- 0.0010 -->
      <g transform="translate(211.398731 332.638438) scale(0.1 -0.1)">
       <defs>
        <path id="DejaVuSans-31" d="M 794 531 
L 1825 531 
L 1825 4091 
L 703 3866 
L 703 4441 
L 1819 4666 
L 2450 4666 
L 2450 531 
L 3481 531 
L 3481 0 
L 794 0 
L 794 531 
z
" transform="scale(0.015625)"/>
       </defs>
       <use xlink:href="#DejaVuSans-30"/>
       <use xlink:href="#DejaVuSans-2e" x="63.623047"/>
       <use xlink:href="#DejaVuSans-30" x="95.410156"/>
       <use xlink:href="#DejaVuSans-30" x="159.033203"/>
       <use xlink:href="#DejaVuSans-31" x="222.65625"/>
       <use xlink:href="#DejaVuSans-30" x="286.279297"/>
      </g>
     </g>
    </g>
    <g id="xtick_7">
     <g id="line2d_7">
      <g>
       <use xlink:href="#m14868749be" x="263.184852" y="318.04" style="stroke: #000000; stroke-width: 0.8"/>
      </g>
     </g>
     <g id="text_7">
      <!-- 0.0012 -->
      <g transform="translate(245.689539 332.638438) scale(0.1 -0.1)">
       <use xlink:href="#DejaVuSans-30"/>
       <use xlink:href="#DejaVuSans-2e" x="63.623047"/>
       <use xlink:href="#DejaVuSans-30" x="95.410156"/>
       <use xlink:href="#DejaVuSans-30" x="159.033203"/>
       <use xlink:href="#DejaVuSans-31" x="222.65625"/>
       <use xlink:href="#DejaVuSans-32" x="286.279297"/>
      </g>
     </g>
    </g>
    <g id="xtick_8">
     <g id="line2d_8">
      <g>
       <use xlink:href="#m14868749be" x="297.47566" y="318.04" style="stroke: #000000; stroke-width: 0.8"/>
      </g>
     </g>
     <g id="text_8">
      <!-- 0.0014 -->
      <g transform="translate(279.980348 332.638438) scale(0.1 -0.1)">
       <use xlink:href="#DejaVuSans-30"/>
       <use xlink:href="#DejaVuSans-2e" x="63.623047"/>
       <use xlink:href="#DejaVuSans-30" x="95.410156"/>
       <use xlink:href="#DejaVuSans-30" x="159.033203"/>
       <use xlink:href="#DejaVuSans-31" x="222.65625"/>
       <use xlink:href="#DejaVuSans-34" x="286.279297"/>
      </g>
     </g>
    </g>
    <g id="xtick_9">
     <g id="line2d_9">
      <g>
       <use xlink:href="#m14868749be" x="331.766469" y="318.04" style="stroke: #000000; stroke-width: 0.8"/>
      </g>
     </g>
     <g id="text_9">
      <!-- 0.0016 -->
      <g transform="translate(314.271156 332.638438) scale(0.1 -0.1)">
       <use xlink:href="#DejaVuSans-30"/>
       <use xlink:href="#DejaVuSans-2e" x="63.623047"/>
       <use xlink:href="#DejaVuSans-30" x="95.410156"/>
       <use xlink:href="#DejaVuSans-30" x="159.033203"/>
       <use xlink:href="#DejaVuSans-31" x="222.65625"/>
       <use xlink:href="#DejaVuSans-36" x="286.279297"/>
      </g>
     </g>
    </g>
    <g id="text_10">
     <!-- Density -->
     <g transform="translate(176.092845 346.316563) scale(0.1 -0.1)">
      <defs>
       <path id="DejaVuSans-44" d="M 1259 4147 
L 1259 519 
L 2022 519 
Q 2988 519 3436 956 
Q 3884 1394 3884 2338 
Q 3884 3275 3436 3711 
Q 2988 4147 2022 4147 
L 1259 4147 
z
M 628 4666 
L 1925 4666 
Q 3281 4666 3915 4102 
Q 4550 3538 4550 2338 
Q 4550 1131 3912 565 
Q 3275 0 1925 0 
L 628 0 
L 628 4666 
z
" transform="scale(0.015625)"/>
       <path id="DejaVuSans-65" d="M 3597 1894 
L 3597 1613 
L 953 1613 
Q 991 1019 1311 708 
Q 1631 397 2203 397 
Q 2534 397 2845 478 
Q 3156 559 3463 722 
L 3463 178 
Q 3153 47 2828 -22 
Q 2503 -91 2169 -91 
Q 1331 -91 842 396 
Q 353 884 353 1716 
Q 353 2575 817 3079 
Q 1281 3584 2069 3584 
Q 2775 3584 3186 3129 
Q 3597 2675 3597 1894 
z
M 3022 2063 
Q 3016 2534 2758 2815 
Q 2500 3097 2075 3097 
Q 1594 3097 1305 2825 
Q 1016 2553 972 2059 
L 3022 2063 
z
" transform="scale(0.015625)"/>
       <path id="DejaVuSans-6e" d="M 3513 2113 
L 3513 0 
L 2938 0 
L 2938 2094 
Q 2938 2591 2744 2837 
Q 2550 3084 2163 3084 
Q 1697 3084 1428 2787 
Q 1159 2491 1159 1978 
L 1159 0 
L 581 0 
L 581 3500 
L 1159 3500 
L 1159 2956 
Q 1366 3272 1645 3428 
Q 1925 3584 2291 3584 
Q 2894 3584 3203 3211 
Q 3513 2838 3513 2113 
z
" transform="scale(0.015625)"/>
       <path id="DejaVuSans-73" d="M 2834 3397 
L 2834 2853 
Q 2591 2978 2328 3040 
Q 2066 3103 1784 3103 
Q 1356 3103 1142 2972 
Q 928 2841 928 2578 
Q 928 2378 1081 2264 
Q 1234 2150 1697 2047 
L 1894 2003 
Q 2506 1872 2764 1633 
Q 3022 1394 3022 966 
Q 3022 478 2636 193 
Q 2250 -91 1575 -91 
Q 1294 -91 989 -36 
Q 684 19 347 128 
L 347 722 
Q 666 556 975 473 
Q 1284 391 1588 391 
Q 1994 391 2212 530 
Q 2431 669 2431 922 
Q 2431 1156 2273 1281 
Q 2116 1406 1581 1522 
L 1381 1569 
Q 847 1681 609 1914 
Q 372 2147 372 2553 
Q 372 3047 722 3315 
Q 1072 3584 1716 3584 
Q 2034 3584 2315 3537 
Q 2597 3491 2834 3397 
z
" transform="scale(0.015625)"/>
       <path id="DejaVuSans-69" d="M 603 3500 
L 1178 3500 
L 1178 0 
L 603 0 
L 603 3500 
z
M 603 4863 
L 1178 4863 
L 1178 4134 
L 603 4134 
L 603 4863 
z
" transform="scale(0.015625)"/>
       <path id="DejaVuSans-74" d="M 1172 4494 
L 1172 3500 
L 2356 3500 
L 2356 3053 
L 1172 3053 
L 1172 1153 
Q 1172 725 1289 603 
Q 1406 481 1766 481 
L 2356 481 
L 2356 0 
L 1766 0 
Q 1100 0 847 248 
Q 594 497 594 1153 
L 594 3053 
L 172 3053 
L 172 3500 
L 594 3500 
L 594 4494 
L 1172 4494 
z
" transform="scale(0.015625)"/>
       <path id="DejaVuSans-79" d="M 2059 -325 
Q 1816 -950 1584 -1140 
Q 1353 -1331 966 -1331 
L 506 -1331 
L 506 -850 
L 844 -850 
Q 1081 -850 1212 -737 
Q 1344 -625 1503 -206 
L 1606 56 
L 191 3500 
L 800 3500 
L 1894 763 
L 2988 3500 
L 3597 3500 
L 2059 -325 
z
" transform="scale(0.015625)"/>
      </defs>
      <use xlink:href="#DejaVuSans-44"/>
      <use xlink:href="#DejaVuSans-65" x="77.001953"/>
      <use xlink:href="#DejaVuSans-6e" x="138.525391"/>
      <use xlink:href="#DejaVuSans-73" x="201.904297"/>
      <use xlink:href="#DejaVuSans-69" x="254.003906"/>
      <use xlink:href="#DejaVuSans-74" x="281.787109"/>
      <use xlink:href="#DejaVuSans-79" x="320.996094"/>
     </g>
    </g>
   </g>
   <g id="matplotlib.axis_2">
    <g id="ytick_1">
     <g id="line2d_10">
      <defs>
       <path id="m31e8b3e9d5" d="M 0 0 
L -3.5 0 
" style="stroke: #000000; stroke-width: 0.8"/>
      </defs>
      <g>
       <use xlink:href="#m31e8b3e9d5" x="57.44" y="303.892908" style="stroke: #000000; stroke-width: 0.8"/>
      </g>
     </g>
     <g id="text_11">
      <!-- 1400 -->
      <g transform="translate(24.99 307.692127) scale(0.1 -0.1)">
       <use xlink:href="#DejaVuSans-31"/>
       <use xlink:href="#DejaVuSans-34" x="63.623047"/>
       <use xlink:href="#DejaVuSans-30" x="127.246094"/>
       <use xlink:href="#DejaVuSans-30" x="190.869141"/>
      </g>
     </g>
    </g>
    <g id="ytick_2">
     <g id="line2d_11">
      <g>
       <use xlink:href="#m31e8b3e9d5" x="57.44" y="268.624527" style="stroke: #000000; stroke-width: 0.8"/>
      </g>
     </g>
     <g id="text_12">
      <!-- 1600 -->
      <g transform="translate(24.99 272.423745) scale(0.1 -0.1)">
       <use xlink:href="#DejaVuSans-31"/>
       <use xlink:href="#DejaVuSans-36" x="63.623047"/>
       <use xlink:href="#DejaVuSans-30" x="127.246094"/>
       <use xlink:href="#DejaVuSans-30" x="190.869141"/>
      </g>
     </g>
    </g>
    <g id="ytick_3">
     <g id="line2d_12">
      <g>
       <use xlink:href="#m31e8b3e9d5" x="57.44" y="233.356145" style="stroke: #000000; stroke-width: 0.8"/>
      </g>
     </g>
     <g id="text_13">
      <!-- 1800 -->
      <g transform="translate(24.99 237.155364) scale(0.1 -0.1)">
       <use xlink:href="#DejaVuSans-31"/>
       <use xlink:href="#DejaVuSans-38" x="63.623047"/>
       <use xlink:href="#DejaVuSans-30" x="127.246094"/>
       <use xlink:href="#DejaVuSans-30" x="190.869141"/>
      </g>
     </g>
    </g>
    <g id="ytick_4">
     <g id="line2d_13">
      <g>
       <use xlink:href="#m31e8b3e9d5" x="57.44" y="198.087764" style="stroke: #000000; stroke-width: 0.8"/>
      </g>
     </g>
     <g id="text_14">
      <!-- 2000 -->
      <g transform="translate(24.99 201.886983) scale(0.1 -0.1)">
       <use xlink:href="#DejaVuSans-32"/>
       <use xlink:href="#DejaVuSans-30" x="63.623047"/>
       <use xlink:href="#DejaVuSans-30" x="127.246094"/>
       <use xlink:href="#DejaVuSans-30" x="190.869141"/>
      </g>
     </g>
    </g>
    <g id="ytick_5">
     <g id="line2d_14">
      <g>
       <use xlink:href="#m31e8b3e9d5" x="57.44" y="162.819383" style="stroke: #000000; stroke-width: 0.8"/>
      </g>
     </g>
     <g id="text_15">
      <!-- 2200 -->
      <g transform="translate(24.99 166.618602) scale(0.1 -0.1)">
       <use xlink:href="#DejaVuSans-32"/>
       <use xlink:href="#DejaVuSans-32" x="63.623047"/>
       <use xlink:href="#DejaVuSans-30" x="127.246094"/>
       <use xlink:href="#DejaVuSans-30" x="190.869141"/>
      </g>
     </g>
    </g>
    <g id="ytick_6">
     <g id="line2d_15">
      <g>
       <use xlink:href="#m31e8b3e9d5" x="57.44" y="127.551002" style="stroke: #000000; stroke-width: 0.8"/>
      </g>
     </g>
     <g id="text_16">
      <!-- 2400 -->
      <g transform="translate(24.99 131.35022) scale(0.1 -0.1)">
       <use xlink:href="#DejaVuSans-32"/>
       <use xlink:href="#DejaVuSans-34" x="63.623047"/>
       <use xlink:href="#DejaVuSans-30" x="127.246094"/>
       <use xlink:href="#DejaVuSans-30" x="190.869141"/>
      </g>
     </g>
    </g>
    <g id="ytick_7">
     <g id="line2d_16">
      <g>
       <use xlink:href="#m31e8b3e9d5" x="57.44" y="92.28262" style="stroke: #000000; stroke-width: 0.8"/>
      </g>
     </g>
     <g id="text_17">
      <!-- 2600 -->
      <g transform="translate(24.99 96.081839) scale(0.1 -0.1)">
       <use xlink:href="#DejaVuSans-32"/>
       <use xlink:href="#DejaVuSans-36" x="63.623047"/>
       <use xlink:href="#DejaVuSans-30" x="127.246094"/>
       <use xlink:href="#DejaVuSans-30" x="190.869141"/>
      </g>
     </g>
    </g>
    <g id="ytick_8">
     <g id="line2d_17">
      <g>
       <use xlink:href="#m31e8b3e9d5" x="57.44" y="57.014239" style="stroke: #000000; stroke-width: 0.8"/>
      </g>
     </g>
     <g id="text_18">
      <!-- 2800 -->
      <g transform="translate(24.99 60.813458) scale(0.1 -0.1)">
       <use xlink:href="#DejaVuSans-32"/>
       <use xlink:href="#DejaVuSans-38" x="63.623047"/>
       <use xlink:href="#DejaVuSans-30" x="127.246094"/>
       <use xlink:href="#DejaVuSans-30" x="190.869141"/>
      </g>
     </g>
    </g>
    <g id="ytick_9">
     <g id="line2d_18">
      <g>
       <use xlink:href="#m31e8b3e9d5" x="57.44" y="21.745858" style="stroke: #000000; stroke-width: 0.8"/>
      </g>
     </g>
     <g id="text_19">
      <!-- 3000 -->
      <g transform="translate(24.99 25.545077) scale(0.1 -0.1)">
       <defs>
        <path id="DejaVuSans-33" d="M 2597 2516 
Q 3050 2419 3304 2112 
Q 3559 1806 3559 1356 
Q 3559 666 3084 287 
Q 2609 -91 1734 -91 
Q 1441 -91 1130 -33 
Q 819 25 488 141 
L 488 750 
Q 750 597 1062 519 
Q 1375 441 1716 441 
Q 2309 441 2620 675 
Q 2931 909 2931 1356 
Q 2931 1769 2642 2001 
Q 2353 2234 1838 2234 
L 1294 2234 
L 1294 2753 
L 1863 2753 
Q 2328 2753 2575 2939 
Q 2822 3125 2822 3475 
Q 2822 3834 2567 4026 
Q 2313 4219 1838 4219 
Q 1578 4219 1281 4162 
Q 984 4106 628 3988 
L 628 4550 
Q 988 4650 1302 4700 
Q 1616 4750 1894 4750 
Q 2613 4750 3031 4423 
Q 3450 4097 3450 3541 
Q 3450 3153 3228 2886 
Q 3006 2619 2597 2516 
z
" transform="scale(0.015625)"/>
       </defs>
       <use xlink:href="#DejaVuSans-33"/>
       <use xlink:href="#DejaVuSans-30" x="63.623047"/>
       <use xlink:href="#DejaVuSans-30" x="127.246094"/>
       <use xlink:href="#DejaVuSans-30" x="190.869141"/>
      </g>
     </g>
    </g>
    <g id="text_20">
     <!-- elevation -->
     <g transform="translate(18.910312 187.562969) rotate(-90) scale(0.1 -0.1)">
      <defs>
       <path id="DejaVuSans-6c" d="M 603 4863 
L 1178 4863 
L 1178 0 
L 603 0 
L 603 4863 
z
" transform="scale(0.015625)"/>
       <path id="DejaVuSans-76" d="M 191 3500 
L 800 3500 
L 1894 563 
L 2988 3500 
L 3597 3500 
L 2284 0 
L 1503 0 
L 191 3500 
z
" transform="scale(0.015625)"/>
       <path id="DejaVuSans-61" d="M 2194 1759 
Q 1497 1759 1228 1600 
Q 959 1441 959 1056 
Q 959 750 1161 570 
Q 1363 391 1709 391 
Q 2188 391 2477 730 
Q 2766 1069 2766 1631 
L 2766 1759 
L 2194 1759 
z
M 3341 1997 
L 3341 0 
L 2766 0 
L 2766 531 
Q 2569 213 2275 61 
Q 1981 -91 1556 -91 
Q 1019 -91 701 211 
Q 384 513 384 1019 
Q 384 1609 779 1909 
Q 1175 2209 1959 2209 
L 2766 2209 
L 2766 2266 
Q 2766 2663 2505 2880 
Q 2244 3097 1772 3097 
Q 1472 3097 1187 3025 
Q 903 2953 641 2809 
L 641 3341 
Q 956 3463 1253 3523 
Q 1550 3584 1831 3584 
Q 2591 3584 2966 3190 
Q 3341 2797 3341 1997 
z
" transform="scale(0.015625)"/>
       <path id="DejaVuSans-6f" d="M 1959 3097 
Q 1497 3097 1228 2736 
Q 959 2375 959 1747 
Q 959 1119 1226 758 
Q 1494 397 1959 397 
Q 2419 397 2687 759 
Q 2956 1122 2956 1747 
Q 2956 2369 2687 2733 
Q 2419 3097 1959 3097 
z
M 1959 3584 
Q 2709 3584 3137 3096 
Q 3566 2609 3566 1747 
Q 3566 888 3137 398 
Q 2709 -91 1959 -91 
Q 1206 -91 779 398 
Q 353 888 353 1747 
Q 353 2609 779 3096 
Q 1206 3584 1959 3584 
z
" transform="scale(0.015625)"/>
      </defs>
      <use xlink:href="#DejaVuSans-65"/>
      <use xlink:href="#DejaVuSans-6c" x="61.523438"/>
      <use xlink:href="#DejaVuSans-65" x="89.306641"/>
      <use xlink:href="#DejaVuSans-76" x="150.830078"/>
      <use xlink:href="#DejaVuSans-61" x="210.009766"/>
      <use xlink:href="#DejaVuSans-74" x="271.289062"/>
      <use xlink:href="#DejaVuSans-69" x="310.498047"/>
      <use xlink:href="#DejaVuSans-6f" x="338.28125"/>
      <use xlink:href="#DejaVuSans-6e" x="399.462891"/>
     </g>
    </g>
   </g>
   <g id="patch_3">
    <path d="M 57.44 318.04 
L 57.44 10.8 
" style="fill: none; stroke: #000000; stroke-width: 0.8; stroke-linejoin: miter; stroke-linecap: square"/>
   </g>
   <g id="patch_4">
    <path d="M 57.44 318.04 
L 332.762878 318.04 
" style="fill: none; stroke: #000000; stroke-width: 0.8; stroke-linejoin: miter; stroke-linecap: square"/>
   </g>
  </g>
 </g>
 <defs>
  <clipPath id="pe57698bd8b">
   <rect x="57.44" y="10.8" width="275.322878" height="307.24"/>
  </clipPath>
 </defs>
</svg>
