<?xml version="1.0" encoding="utf-8" standalone="no"?>
<!DOCTYPE svg PUBLIC "-//W3C//DTD SVG 1.1//EN"
  "http://www.w3.org/Graphics/SVG/1.1/DTD/svg11.dtd">
<svg xmlns:xlink="http://www.w3.org/1999/xlink" width="460.8pt" height="345.6pt" viewBox="0 0 460.8 345.6" xmlns="http://www.w3.org/2000/svg" version="1.1">
 <metadata>
  <rdf:RDF xmlns:dc="http://purl.org/dc/elements/1.1/" xmlns:cc="http://creativecommons.org/ns#" xmlns:rdf="http://www.w3.org/1999/02/22-rdf-syntax-ns#">
   <cc:Work>
    <dc:type rdf:resource="http://purl.org/dc/dcmitype/StillImage"/>
    <dc:date>2023-11-14T10:49:46.137015</dc:date>
    <dc:format>image/svg+xml</dc:format>
    <dc:creator>
     <cc:Agent>
      <dc:title>Matplotlib v3.7.1, https://matplotlib.org/</dc:title>
     </cc:Agent>
    </dc:creator>
   </cc:Work>
  </rdf:RDF>
 </metadata>
 <defs>
  <style type="text/css">*{stroke-linejoin: round; stroke-linecap: butt}</style>
 </defs>
 <g id="figure_1">
  <g id="patch_1">
   <path d="M 0 345.6 
L 460.8 345.6 
L 460.8 0 
L 0 0 
z
" style="fill: #ffffff"/>
  </g>
  <g id="axes_1">
   <g id="patch_2">
    <path d="M 57.6 307.584 
L 414.72 307.584 
L 414.72 41.472 
L 57.6 41.472 
z
" style="fill: #ffffff"/>
   </g>
   <g id="PolyCollection_1">
    <defs>
     <path id="m4309f03a5c" d="M 87.648864 -93.513147 
L 87.071136 -93.513147 
L 87.00907 -94.942702 
L 86.936875 -96.372257 
L 86.853609 -97.801813 
L 86.758374 -99.231368 
L 86.650343 -100.660923 
L 86.528781 -102.090478 
L 86.393061 -103.520033 
L 86.242681 -104.949588 
L 86.077271 -106.379144 
L 85.896595 -107.808699 
L 85.700542 -109.238254 
L 85.489113 -110.667809 
L 85.262395 -112.097364 
L 85.020541 -113.52692 
L 84.76373 -114.956475 
L 84.49214 -116.38603 
L 84.205917 -117.815585 
L 83.905155 -119.24514 
L 83.589878 -120.674695 
L 83.260048 -122.104251 
L 82.915577 -123.533806 
L 82.556367 -124.963361 
L 82.182362 -126.392916 
L 81.793626 -127.822471 
L 81.390423 -129.252026 
L 80.973321 -130.681582 
L 80.543295 -132.111137 
L 80.101827 -133.540692 
L 79.650998 -134.970247 
L 79.193561 -136.399802 
L 78.732986 -137.829357 
L 78.273481 -139.258913 
L 77.819962 -140.688468 
L 77.377992 -142.118023 
L 76.953674 -143.547578 
L 76.553504 -144.977133 
L 76.184194 -146.406689 
L 75.852456 -147.836244 
L 75.56478 -149.265799 
L 75.327192 -150.695354 
L 75.145027 -152.124909 
L 75.022708 -153.554464 
L 74.963557 -154.98402 
L 74.969638 -156.413575 
L 75.04165 -157.84313 
L 75.17886 -159.272685 
L 75.379099 -160.70224 
L 75.638801 -162.131795 
L 75.953098 -163.561351 
L 76.315955 -164.990906 
L 76.720346 -166.420461 
L 77.158463 -167.850016 
L 77.621943 -169.279571 
L 78.102109 -170.709126 
L 78.590217 -172.138682 
L 79.077703 -173.568237 
L 79.556407 -174.997792 
L 80.018793 -176.427347 
L 80.45814 -177.856902 
L 80.868701 -179.286458 
L 81.245835 -180.716013 
L 81.586105 -182.145568 
L 81.887335 -183.575123 
L 82.148627 -185.004678 
L 82.370346 -186.434233 
L 82.554058 -187.863789 
L 82.702436 -189.293344 
L 82.819128 -190.722899 
L 82.908595 -192.152454 
L 82.975925 -193.582009 
L 83.026629 -195.011564 
L 83.06642 -196.44112 
L 83.100995 -197.870675 
L 83.135823 -199.30023 
L 83.175944 -200.729785 
L 83.225798 -202.15934 
L 83.289078 -203.588896 
L 83.368625 -205.018451 
L 83.466361 -206.448006 
L 83.583266 -207.877561 
L 83.719399 -209.307116 
L 83.873952 -210.736671 
L 84.045348 -212.166227 
L 84.231355 -213.595782 
L 84.429234 -215.025337 
L 84.635887 -216.454892 
L 84.848016 -217.884447 
L 85.062275 -219.314002 
L 85.275405 -220.743558 
L 85.484361 -222.173113 
L 85.686409 -223.602668 
L 85.879199 -225.032223 
L 86.060817 -226.461778 
L 86.229804 -227.891333 
L 86.385161 -229.320889 
L 86.526325 -230.750444 
L 86.653136 -232.179999 
L 86.765785 -233.609554 
L 86.864764 -235.039109 
L 87.855236 -235.039109 
L 87.855236 -235.039109 
L 87.954215 -233.609554 
L 88.066864 -232.179999 
L 88.193675 -230.750444 
L 88.334839 -229.320889 
L 88.490196 -227.891333 
L 88.659183 -226.461778 
L 88.840801 -225.032223 
L 89.033591 -223.602668 
L 89.235639 -222.173113 
L 89.444595 -220.743558 
L 89.657725 -219.314002 
L 89.871984 -217.884447 
L 90.084113 -216.454892 
L 90.290766 -215.025337 
L 90.488645 -213.595782 
L 90.674652 -212.166227 
L 90.846048 -210.736671 
L 91.000601 -209.307116 
L 91.136734 -207.877561 
L 91.253639 -206.448006 
L 91.351375 -205.018451 
L 91.430922 -203.588896 
L 91.494202 -202.15934 
L 91.544056 -200.729785 
L 91.584177 -199.30023 
L 91.619005 -197.870675 
L 91.65358 -196.44112 
L 91.693371 -195.011564 
L 91.744075 -193.582009 
L 91.811405 -192.152454 
L 91.900872 -190.722899 
L 92.017564 -189.293344 
L 92.165942 -187.863789 
L 92.349654 -186.434233 
L 92.571373 -185.004678 
L 92.832665 -183.575123 
L 93.133895 -182.145568 
L 93.474165 -180.716013 
L 93.851299 -179.286458 
L 94.26186 -177.856902 
L 94.701207 -176.427347 
L 95.163593 -174.997792 
L 95.642297 -173.568237 
L 96.129783 -172.138682 
L 96.617891 -170.709126 
L 97.098057 -169.279571 
L 97.561537 -167.850016 
L 97.999654 -166.420461 
L 98.404045 -164.990906 
L 98.766902 -163.561351 
L 99.081199 -162.131795 
L 99.340901 -160.70224 
L 99.54114 -159.272685 
L 99.67835 -157.84313 
L 99.750362 -156.413575 
L 99.756443 -154.98402 
L 99.697292 -153.554464 
L 99.574973 -152.124909 
L 99.392808 -150.695354 
L 99.15522 -149.265799 
L 98.867544 -147.836244 
L 98.535806 -146.406689 
L 98.166496 -144.977133 
L 97.766326 -143.547578 
L 97.342008 -142.118023 
L 96.900038 -140.688468 
L 96.446519 -139.258913 
L 95.987014 -137.829357 
L 95.526439 -136.399802 
L 95.069002 -134.970247 
L 94.618173 -133.540692 
L 94.176705 -132.111137 
L 93.746679 -130.681582 
L 93.329577 -129.252026 
L 92.926374 -127.822471 
L 92.537638 -126.392916 
L 92.163633 -124.963361 
L 91.804423 -123.533806 
L 91.459952 -122.104251 
L 91.130122 -120.674695 
L 90.814845 -119.24514 
L 90.514083 -117.815585 
L 90.22786 -116.38603 
L 89.95627 -114.956475 
L 89.699459 -113.52692 
L 89.457605 -112.097364 
L 89.230887 -110.667809 
L 89.019458 -109.238254 
L 88.823405 -107.808699 
L 88.642729 -106.379144 
L 88.477319 -104.949588 
L 88.326939 -103.520033 
L 88.191219 -102.090478 
L 88.069657 -100.660923 
L 87.961626 -99.231368 
L 87.866391 -97.801813 
L 87.783125 -96.372257 
L 87.71093 -94.942702 
L 87.648864 -93.513147 
z
" style="stroke: #5c5c5c; stroke-width: 1.5"/>
    </defs>
    <g clip-path="url(#p8a7615fb29)">
     <use xlink:href="#m4309f03a5c" x="0" y="345.6" style="fill: #7891dd; stroke: #5c5c5c; stroke-width: 1.5"/>
    </g>
   </g>
   <g id="PolyCollection_2">
    <defs>
     <path id="m6769d3c3ce" d="M 147.141943 -40.770366 
L 146.618057 -40.770366 
L 146.552911 -42.529123 
L 146.475641 -44.287879 
L 146.385094 -46.046635 
L 146.280282 -47.805391 
L 146.160462 -49.564147 
L 146.025211 -51.322904 
L 145.874501 -53.08166 
L 145.70877 -54.840416 
L 145.52897 -56.599172 
L 145.336598 -58.357929 
L 145.133701 -60.116685 
L 144.922844 -61.875441 
L 144.707047 -63.634197 
L 144.489679 -65.392954 
L 144.274323 -67.15171 
L 144.064605 -68.910466 
L 143.863993 -70.669222 
L 143.675593 -72.427979 
L 143.501925 -74.186735 
L 143.344725 -75.945491 
L 143.204759 -77.704247 
L 143.08168 -79.463004 
L 142.973941 -81.22176 
L 142.878758 -82.980516 
L 142.792159 -84.739272 
L 142.709098 -86.498028 
L 142.623643 -88.256785 
L 142.529233 -90.015541 
L 142.419001 -91.774297 
L 142.28613 -93.533053 
L 142.124245 -95.29181 
L 141.927804 -97.050566 
L 141.692482 -98.809322 
L 141.415505 -100.568078 
L 141.095935 -102.326835 
L 140.734869 -104.085591 
L 140.335546 -105.844347 
L 139.903351 -107.603103 
L 139.445704 -109.36186 
L 138.97185 -111.120616 
L 138.492539 -112.879372 
L 138.019623 -114.638128 
L 137.565586 -116.396884 
L 137.143027 -118.155641 
L 136.764129 -119.914397 
L 136.440132 -121.673153 
L 136.180847 -123.431909 
L 135.99424 -125.190666 
L 135.886087 -126.949422 
L 135.859749 -128.708178 
L 135.916047 -130.466934 
L 136.053262 -132.225691 
L 136.267255 -133.984447 
L 136.551682 -135.743203 
L 136.898317 -137.501959 
L 137.297437 -139.260716 
L 137.738263 -141.019472 
L 138.209428 -142.778228 
L 138.699446 -144.536984 
L 139.19716 -146.29574 
L 139.692151 -148.054497 
L 140.175085 -149.813253 
L 140.63799 -151.572009 
L 141.074453 -153.330765 
L 141.479731 -155.089522 
L 141.85078 -156.848278 
L 142.186209 -158.607034 
L 142.486158 -160.36579 
L 142.752121 -162.124547 
L 142.986725 -163.883303 
L 143.193473 -165.642059 
L 143.376478 -167.400815 
L 143.540189 -169.159572 
L 143.689134 -170.918328 
L 143.827682 -172.677084 
L 143.959842 -174.43584 
L 144.089101 -176.194596 
L 144.218306 -177.953353 
L 144.349591 -179.712109 
L 144.484358 -181.470865 
L 144.623286 -183.229621 
L 144.766392 -184.988378 
L 144.913109 -186.747134 
L 145.062395 -188.50589 
L 145.212853 -190.264646 
L 145.362855 -192.023403 
L 145.510661 -193.782159 
L 145.654539 -195.540915 
L 145.792856 -197.299671 
L 145.924165 -199.058428 
L 146.047257 -200.817184 
L 146.161205 -202.57594 
L 146.265377 -204.334696 
L 146.359438 -206.093453 
L 146.443331 -207.852209 
L 146.517247 -209.610965 
L 146.581589 -211.369721 
L 146.63693 -213.128477 
L 146.683965 -214.887234 
L 147.076035 -214.887234 
L 147.076035 -214.887234 
L 147.12307 -213.128477 
L 147.178411 -211.369721 
L 147.242753 -209.610965 
L 147.316669 -207.852209 
L 147.400562 -206.093453 
L 147.494623 -204.334696 
L 147.598795 -202.57594 
L 147.712743 -200.817184 
L 147.835835 -199.058428 
L 147.967144 -197.299671 
L 148.105461 -195.540915 
L 148.249339 -193.782159 
L 148.397145 -192.023403 
L 148.547147 -190.264646 
L 148.697605 -188.50589 
L 148.846891 -186.747134 
L 148.993608 -184.988378 
L 149.136714 -183.229621 
L 149.275642 -181.470865 
L 149.410409 -179.712109 
L 149.541694 -177.953353 
L 149.670899 -176.194596 
L 149.800158 -174.43584 
L 149.932318 -172.677084 
L 150.070866 -170.918328 
L 150.219811 -169.159572 
L 150.383522 -167.400815 
L 150.566527 -165.642059 
L 150.773275 -163.883303 
L 151.007879 -162.124547 
L 151.273842 -160.36579 
L 151.573791 -158.607034 
L 151.90922 -156.848278 
L 152.280269 -155.089522 
L 152.685547 -153.330765 
L 153.12201 -151.572009 
L 153.584915 -149.813253 
L 154.067849 -148.054497 
L 154.56284 -146.29574 
L 155.060554 -144.536984 
L 155.550572 -142.778228 
L 156.021737 -141.019472 
L 156.462563 -139.260716 
L 156.861683 -137.501959 
L 157.208318 -135.743203 
L 157.492745 -133.984447 
L 157.706738 -132.225691 
L 157.843953 -130.466934 
L 157.900251 -128.708178 
L 157.873913 -126.949422 
L 157.76576 -125.190666 
L 157.579153 -123.431909 
L 157.319868 -121.673153 
L 156.995871 -119.914397 
L 156.616973 -118.155641 
L 156.194414 -116.396884 
L 155.740377 -114.638128 
L 155.267461 -112.879372 
L 154.78815 -111.120616 
L 154.314296 -109.36186 
L 153.856649 -107.603103 
L 153.424454 -105.844347 
L 153.025131 -104.085591 
L 152.664065 -102.326835 
L 152.344495 -100.568078 
L 152.067518 -98.809322 
L 151.832196 -97.050566 
L 151.635755 -95.29181 
L 151.47387 -93.533053 
L 151.340999 -91.774297 
L 151.230767 -90.015541 
L 151.136357 -88.256785 
L 151.050902 -86.498028 
L 150.967841 -84.739272 
L 150.881242 -82.980516 
L 150.786059 -81.22176 
L 150.67832 -79.463004 
L 150.555241 -77.704247 
L 150.415275 -75.945491 
L 150.258075 -74.186735 
L 150.084407 -72.427979 
L 149.896007 -70.669222 
L 149.695395 -68.910466 
L 149.485677 -67.15171 
L 149.270321 -65.392954 
L 149.052953 -63.634197 
L 148.837156 -61.875441 
L 148.626299 -60.116685 
L 148.423402 -58.357929 
L 148.23103 -56.599172 
L 148.05123 -54.840416 
L 147.885499 -53.08166 
L 147.734789 -51.322904 
L 147.599538 -49.564147 
L 147.479718 -47.805391 
L 147.374906 -46.046635 
L 147.284359 -44.287879 
L 147.207089 -42.529123 
L 147.141943 -40.770366 
z
" style="stroke: #5c5c5c; stroke-width: 1.5"/>
    </defs>
    <g clip-path="url(#p8a7615fb29)">
     <use xlink:href="#m6769d3c3ce" x="0" y="345.6" style="fill: #a6bff2; stroke: #5c5c5c; stroke-width: 1.5"/>
    </g>
   </g>
   <g id="PolyCollection_3">
    <defs>
     <path id="m9a5a7f74f9" d="M 206.997362 -131.879135 
L 205.802638 -131.879135 
L 205.660703 -132.781492 
L 205.495394 -133.68385 
L 205.305632 -134.586207 
L 205.091013 -135.488564 
L 204.85196 -136.390922 
L 204.589856 -137.293279 
L 204.307144 -138.195636 
L 204.007368 -139.097994 
L 203.695151 -140.000351 
L 203.376106 -140.902708 
L 203.056656 -141.805066 
L 202.743786 -142.707423 
L 202.444716 -143.60978 
L 202.166521 -144.512138 
L 201.915711 -145.414495 
L 201.697804 -146.316852 
L 201.516905 -147.21921 
L 201.375342 -148.121567 
L 201.273365 -149.023924 
L 201.208943 -149.926281 
L 201.177677 -150.828639 
L 201.172828 -151.730996 
L 201.185479 -152.633353 
L 201.204801 -153.535711 
L 201.218428 -154.438068 
L 201.212909 -155.340425 
L 201.174219 -156.242783 
L 201.088292 -157.14514 
L 200.941567 -158.047497 
L 200.721506 -158.949855 
L 200.417082 -159.852212 
L 200.019213 -160.754569 
L 199.521138 -161.656927 
L 198.918728 -162.559284 
L 198.21074 -163.461641 
L 197.399003 -164.363999 
L 196.488543 -165.266356 
L 195.487647 -166.168713 
L 194.40786 -167.071071 
L 193.263896 -167.973428 
L 192.073477 -168.875785 
L 190.857051 -169.778143 
L 189.637415 -170.6805 
L 188.439201 -171.582857 
L 187.288244 -172.485215 
L 186.210824 -173.387572 
L 185.232808 -174.289929 
L 184.37872 -175.192287 
L 183.670772 -176.094644 
L 183.127924 -176.997001 
L 182.765009 -177.899359 
L 182.592 -178.801716 
L 182.613465 -179.704073 
L 182.828263 -180.606431 
L 183.229504 -181.508788 
L 183.804801 -182.411145 
L 184.536792 -183.313503 
L 185.403924 -184.21586 
L 186.381432 -185.118217 
L 187.442477 -186.020575 
L 188.559351 -186.922932 
L 189.704684 -187.825289 
L 190.85258 -188.727647 
L 191.979609 -189.630004 
L 193.065617 -190.532361 
L 194.094296 -191.434719 
L 195.053517 -192.337076 
L 195.935408 -193.239433 
L 196.736207 -194.141791 
L 197.455912 -195.044148 
L 198.09777 -195.946505 
L 198.667654 -196.848863 
L 199.173379 -197.75122 
L 199.623996 -198.653577 
L 200.029122 -199.555935 
L 200.398323 -200.458292 
L 200.740595 -201.360649 
L 201.063948 -202.263007 
L 201.375114 -203.165364 
L 201.679361 -204.067721 
L 201.980437 -204.970079 
L 202.280594 -205.872436 
L 202.580711 -206.774793 
L 202.88047 -207.677151 
L 203.178589 -208.579508 
L 203.473064 -209.481865 
L 203.761431 -210.384223 
L 204.041008 -211.28658 
L 204.309121 -212.188937 
L 204.563291 -213.091295 
L 204.80138 -213.993652 
L 205.0217 -214.896009 
L 205.223074 -215.798367 
L 205.404854 -216.700724 
L 205.566913 -217.603081 
L 205.709599 -218.505439 
L 205.833672 -219.407796 
L 205.940225 -220.310153 
L 206.030606 -221.212511 
L 206.769394 -221.212511 
L 206.769394 -221.212511 
L 206.859775 -220.310153 
L 206.966328 -219.407796 
L 207.090401 -218.505439 
L 207.233087 -217.603081 
L 207.395146 -216.700724 
L 207.576926 -215.798367 
L 207.7783 -214.896009 
L 207.99862 -213.993652 
L 208.236709 -213.091295 
L 208.490879 -212.188937 
L 208.758992 -211.28658 
L 209.038569 -210.384223 
L 209.326936 -209.481865 
L 209.621411 -208.579508 
L 209.91953 -207.677151 
L 210.219289 -206.774793 
L 210.519406 -205.872436 
L 210.819563 -204.970079 
L 211.120639 -204.067721 
L 211.424886 -203.165364 
L 211.736052 -202.263007 
L 212.059405 -201.360649 
L 212.401677 -200.458292 
L 212.770878 -199.555935 
L 213.176004 -198.653577 
L 213.626621 -197.75122 
L 214.132346 -196.848863 
L 214.70223 -195.946505 
L 215.344088 -195.044148 
L 216.063793 -194.141791 
L 216.864592 -193.239433 
L 217.746483 -192.337076 
L 218.705704 -191.434719 
L 219.734383 -190.532361 
L 220.820391 -189.630004 
L 221.94742 -188.727647 
L 223.095316 -187.825289 
L 224.240649 -186.922932 
L 225.357523 -186.020575 
L 226.418568 -185.118217 
L 227.396076 -184.21586 
L 228.263208 -183.313503 
L 228.995199 -182.411145 
L 229.570496 -181.508788 
L 229.971737 -180.606431 
L 230.186535 -179.704073 
L 230.208 -178.801716 
L 230.034991 -177.899359 
L 229.672076 -176.997001 
L 229.129228 -176.094644 
L 228.42128 -175.192287 
L 227.567192 -174.289929 
L 226.589176 -173.387572 
L 225.511756 -172.485215 
L 224.360799 -171.582857 
L 223.162585 -170.6805 
L 221.942949 -169.778143 
L 220.726523 -168.875785 
L 219.536104 -167.973428 
L 218.39214 -167.071071 
L 217.312353 -166.168713 
L 216.311457 -165.266356 
L 215.400997 -164.363999 
L 214.58926 -163.461641 
L 213.881272 -162.559284 
L 213.278862 -161.656927 
L 212.780787 -160.754569 
L 212.382918 -159.852212 
L 212.078494 -158.949855 
L 211.858433 -158.047497 
L 211.711708 -157.14514 
L 211.625781 -156.242783 
L 211.587091 -155.340425 
L 211.581572 -154.438068 
L 211.595199 -153.535711 
L 211.614521 -152.633353 
L 211.627172 -151.730996 
L 211.622323 -150.828639 
L 211.591057 -149.926281 
L 211.526635 -149.023924 
L 211.424658 -148.121567 
L 211.283095 -147.21921 
L 211.102196 -146.316852 
L 210.884289 -145.414495 
L 210.633479 -144.512138 
L 210.355284 -143.60978 
L 210.056214 -142.707423 
L 209.743344 -141.805066 
L 209.423894 -140.902708 
L 209.104849 -140.000351 
L 208.792632 -139.097994 
L 208.492856 -138.195636 
L 208.210144 -137.293279 
L 207.94804 -136.390922 
L 207.708987 -135.488564 
L 207.494368 -134.586207 
L 207.304606 -133.68385 
L 207.139297 -132.781492 
L 206.997362 -131.879135 
z
" style="stroke: #5c5c5c; stroke-width: 1.5"/>
    </defs>
    <g clip-path="url(#p8a7615fb29)">
     <use xlink:href="#m9a5a7f74f9" x="0" y="345.6" style="fill: #cdd9eb; stroke: #5c5c5c; stroke-width: 1.5"/>
    </g>
   </g>
   <g id="PolyCollection_4">
    <defs>
     <path id="mc28c8feb5d" d="M 266.336199 -151.883315 
L 265.503801 -151.883315 
L 265.418104 -152.845255 
L 265.32025 -153.807196 
L 265.209805 -154.769136 
L 265.086617 -155.731077 
L 264.950872 -156.693018 
L 264.803136 -157.654958 
L 264.644389 -158.616899 
L 264.476039 -159.578839 
L 264.299918 -160.54078 
L 264.118254 -161.502721 
L 263.933608 -162.464661 
L 263.748803 -163.426602 
L 263.566809 -164.388542 
L 263.390621 -165.350483 
L 263.22311 -166.312424 
L 263.066876 -167.274364 
L 262.924083 -168.236305 
L 262.796319 -169.198245 
L 262.684455 -170.160186 
L 262.588541 -171.122127 
L 262.507725 -172.084067 
L 262.440215 -173.046008 
L 262.383278 -174.007948 
L 262.333281 -174.969889 
L 262.285782 -175.931829 
L 262.235642 -176.89377 
L 262.17719 -177.855711 
L 262.104391 -178.817651 
L 262.011051 -179.779592 
L 261.89101 -180.741532 
L 261.738349 -181.703473 
L 261.547582 -182.665414 
L 261.313826 -183.627354 
L 261.032967 -184.589295 
L 260.701783 -185.551235 
L 260.318057 -186.513176 
L 259.880659 -187.475117 
L 259.389603 -188.437057 
L 258.846089 -189.398998 
L 258.252511 -190.360938 
L 257.612461 -191.322879 
L 256.930702 -192.28482 
L 256.213127 -193.24676 
L 255.466693 -194.208701 
L 254.69933 -195.170641 
L 253.919825 -196.132582 
L 253.137675 -197.094523 
L 252.362903 -198.056463 
L 251.605853 -199.018404 
L 250.876948 -199.980344 
L 250.186432 -200.942285 
L 249.544091 -201.904225 
L 248.958978 -202.866166 
L 248.439149 -203.828107 
L 247.991423 -204.790047 
L 247.62118 -205.751988 
L 247.332223 -206.713928 
L 247.126697 -207.675869 
L 247.005083 -208.63781 
L 246.966269 -209.59975 
L 247.007684 -210.561691 
L 247.125507 -211.523631 
L 247.31491 -212.485572 
L 247.570349 -213.447513 
L 247.885848 -214.409453 
L 248.255292 -215.371394 
L 248.672681 -216.333334 
L 249.132342 -217.295275 
L 249.629084 -218.257216 
L 250.158289 -219.219156 
L 250.715934 -220.181097 
L 251.298556 -221.143037 
L 251.903158 -222.104978 
L 252.527079 -223.066918 
L 253.167843 -224.028859 
L 253.822996 -224.9908 
L 254.489959 -225.95274 
L 255.165904 -226.914681 
L 255.847667 -227.876621 
L 256.531707 -228.838562 
L 257.214112 -229.800503 
L 257.890646 -230.762443 
L 258.556847 -231.724384 
L 259.208146 -232.686324 
L 259.840013 -233.648265 
L 260.448112 -234.610206 
L 261.028448 -235.572146 
L 261.577509 -236.534087 
L 262.092371 -237.496027 
L 262.570791 -238.457968 
L 263.011251 -239.419909 
L 263.412976 -240.381849 
L 263.775916 -241.34379 
L 264.100698 -242.30573 
L 264.388556 -243.267671 
L 264.641239 -244.229612 
L 264.860913 -245.191552 
L 265.050048 -246.153493 
L 265.21132 -247.115433 
L 266.62868 -247.115433 
L 266.62868 -247.115433 
L 266.789952 -246.153493 
L 266.979087 -245.191552 
L 267.198761 -244.229612 
L 267.451444 -243.267671 
L 267.739302 -242.30573 
L 268.064084 -241.34379 
L 268.427024 -240.381849 
L 268.828749 -239.419909 
L 269.269209 -238.457968 
L 269.747629 -237.496027 
L 270.262491 -236.534087 
L 270.811552 -235.572146 
L 271.391888 -234.610206 
L 271.999987 -233.648265 
L 272.631854 -232.686324 
L 273.283153 -231.724384 
L 273.949354 -230.762443 
L 274.625888 -229.800503 
L 275.308293 -228.838562 
L 275.992333 -227.876621 
L 276.674096 -226.914681 
L 277.350041 -225.95274 
L 278.017004 -224.9908 
L 278.672157 -224.028859 
L 279.312921 -223.066918 
L 279.936842 -222.104978 
L 280.541444 -221.143037 
L 281.124066 -220.181097 
L 281.681711 -219.219156 
L 282.210916 -218.257216 
L 282.707658 -217.295275 
L 283.167319 -216.333334 
L 283.584708 -215.371394 
L 283.954152 -214.409453 
L 284.269651 -213.447513 
L 284.52509 -212.485572 
L 284.714493 -211.523631 
L 284.832316 -210.561691 
L 284.873731 -209.59975 
L 284.834917 -208.63781 
L 284.713303 -207.675869 
L 284.507777 -206.713928 
L 284.21882 -205.751988 
L 283.848577 -204.790047 
L 283.400851 -203.828107 
L 282.881022 -202.866166 
L 282.295909 -201.904225 
L 281.653568 -200.942285 
L 280.963052 -199.980344 
L 280.234147 -199.018404 
L 279.477097 -198.056463 
L 278.702325 -197.094523 
L 277.920175 -196.132582 
L 277.14067 -195.170641 
L 276.373307 -194.208701 
L 275.626873 -193.24676 
L 274.909298 -192.28482 
L 274.227539 -191.322879 
L 273.587489 -190.360938 
L 272.993911 -189.398998 
L 272.450397 -188.437057 
L 271.959341 -187.475117 
L 271.521943 -186.513176 
L 271.138217 -185.551235 
L 270.807033 -184.589295 
L 270.526174 -183.627354 
L 270.292418 -182.665414 
L 270.101651 -181.703473 
L 269.94899 -180.741532 
L 269.828949 -179.779592 
L 269.735609 -178.817651 
L 269.66281 -177.855711 
L 269.604358 -176.89377 
L 269.554218 -175.931829 
L 269.506719 -174.969889 
L 269.456722 -174.007948 
L 269.399785 -173.046008 
L 269.332275 -172.084067 
L 269.251459 -171.122127 
L 269.155545 -170.160186 
L 269.043681 -169.198245 
L 268.915917 -168.236305 
L 268.773124 -167.274364 
L 268.61689 -166.312424 
L 268.449379 -165.350483 
L 268.273191 -164.388542 
L 268.091197 -163.426602 
L 267.906392 -162.464661 
L 267.721746 -161.502721 
L 267.540082 -160.54078 
L 267.363961 -159.578839 
L 267.195611 -158.616899 
L 267.036864 -157.654958 
L 266.889128 -156.693018 
L 266.753383 -155.731077 
L 266.630195 -154.769136 
L 266.51975 -153.807196 
L 266.421896 -152.845255 
L 266.336199 -151.883315 
z
" style="stroke: #5c5c5c; stroke-width: 1.5"/>
    </defs>
    <g clip-path="url(#p8a7615fb29)">
     <use xlink:href="#mc28c8feb5d" x="0" y="345.6" style="fill: #e8d2c7; stroke: #5c5c5c; stroke-width: 1.5"/>
    </g>
   </g>
   <g id="PolyCollection_5">
    <defs>
     <path id="m97c1e6a2cc" d="M 325.917302 -133.633965 
L 324.962698 -133.633965 
L 324.861685 -134.416389 
L 324.74559 -135.198814 
L 324.613615 -135.981238 
L 324.465223 -136.763662 
L 324.300187 -137.546087 
L 324.118625 -138.328511 
L 323.921026 -139.110935 
L 323.708242 -139.89336 
L 323.481465 -140.675784 
L 323.242176 -141.458208 
L 322.992063 -142.240633 
L 322.732917 -143.023057 
L 322.466504 -143.805481 
L 322.194425 -144.587906 
L 321.917967 -145.37033 
L 321.637962 -146.152754 
L 321.354654 -146.935179 
L 321.067599 -147.717603 
L 320.775594 -148.500027 
L 320.476652 -149.282452 
L 320.168033 -150.064876 
L 319.846312 -150.8473 
L 319.507514 -151.629725 
L 319.147281 -152.412149 
L 318.761088 -153.194573 
L 318.344477 -153.976998 
L 317.893307 -154.759422 
L 317.40401 -155.541846 
L 316.873824 -156.324271 
L 316.301012 -157.106695 
L 315.685035 -157.889119 
L 315.026689 -158.671544 
L 314.328196 -159.453968 
L 313.593236 -160.236392 
L 312.82694 -161.018817 
L 312.03583 -161.801241 
L 311.227718 -162.583665 
L 310.411557 -163.36609 
L 309.597271 -164.148514 
L 308.795531 -164.930938 
L 308.017522 -165.713363 
L 307.274666 -166.495787 
L 306.578335 -167.278211 
L 305.939533 -168.060636 
L 305.368584 -168.84306 
L 304.874798 -169.625484 
L 304.466162 -170.407909 
L 304.149045 -171.190333 
L 303.927939 -171.972757 
L 303.805261 -172.755182 
L 303.781217 -173.537606 
L 303.853752 -174.32003 
L 304.018587 -175.102455 
L 304.269358 -175.884879 
L 304.597849 -176.667303 
L 304.994312 -177.449728 
L 305.447865 -178.232152 
L 305.946941 -179.014576 
L 306.47978 -179.797001 
L 307.034911 -180.579425 
L 307.601624 -181.361849 
L 308.170389 -182.144274 
L 308.733199 -182.926698 
L 309.283828 -183.709122 
L 309.817973 -184.491547 
L 310.333302 -185.273971 
L 310.829371 -186.056395 
L 311.30746 -186.83882 
L 311.770309 -187.621244 
L 312.221787 -188.403668 
L 312.666523 -189.186093 
L 313.109506 -189.968517 
L 313.555701 -190.750941 
L 314.009675 -191.533366 
L 314.47529 -192.31579 
L 314.955438 -193.098214 
L 315.45187 -193.880639 
L 315.965086 -194.663063 
L 316.49432 -195.445487 
L 317.037592 -196.227912 
L 317.591832 -197.010336 
L 318.153059 -197.79276 
L 318.716594 -198.575185 
L 319.277309 -199.357609 
L 319.829875 -200.140033 
L 320.36901 -200.922458 
L 320.889705 -201.704882 
L 321.387415 -202.487306 
L 321.858223 -203.269731 
L 322.29895 -204.052155 
L 322.707221 -204.834579 
L 323.081495 -205.617004 
L 323.421045 -206.399428 
L 323.725912 -207.181852 
L 323.996821 -207.964277 
L 324.235089 -208.746701 
L 324.442513 -209.529125 
L 324.621252 -210.31155 
L 324.773716 -211.093974 
L 326.106284 -211.093974 
L 326.106284 -211.093974 
L 326.258748 -210.31155 
L 326.437487 -209.529125 
L 326.644911 -208.746701 
L 326.883179 -207.964277 
L 327.154088 -207.181852 
L 327.458955 -206.399428 
L 327.798505 -205.617004 
L 328.172779 -204.834579 
L 328.58105 -204.052155 
L 329.021777 -203.269731 
L 329.492585 -202.487306 
L 329.990295 -201.704882 
L 330.51099 -200.922458 
L 331.050125 -200.140033 
L 331.602691 -199.357609 
L 332.163406 -198.575185 
L 332.726941 -197.79276 
L 333.288168 -197.010336 
L 333.842408 -196.227912 
L 334.38568 -195.445487 
L 334.914914 -194.663063 
L 335.42813 -193.880639 
L 335.924562 -193.098214 
L 336.40471 -192.31579 
L 336.870325 -191.533366 
L 337.324299 -190.750941 
L 337.770494 -189.968517 
L 338.213477 -189.186093 
L 338.658213 -188.403668 
L 339.109691 -187.621244 
L 339.57254 -186.83882 
L 340.050629 -186.056395 
L 340.546698 -185.273971 
L 341.062027 -184.491547 
L 341.596172 -183.709122 
L 342.146801 -182.926698 
L 342.709611 -182.144274 
L 343.278376 -181.361849 
L 343.845089 -180.579425 
L 344.40022 -179.797001 
L 344.933059 -179.014576 
L 345.432135 -178.232152 
L 345.885688 -177.449728 
L 346.282151 -176.667303 
L 346.610642 -175.884879 
L 346.861413 -175.102455 
L 347.026248 -174.32003 
L 347.098783 -173.537606 
L 347.074739 -172.755182 
L 346.952061 -171.972757 
L 346.730955 -171.190333 
L 346.413838 -170.407909 
L 346.005202 -169.625484 
L 345.511416 -168.84306 
L 344.940467 -168.060636 
L 344.301665 -167.278211 
L 343.605334 -166.495787 
L 342.862478 -165.713363 
L 342.084469 -164.930938 
L 341.282729 -164.148514 
L 340.468443 -163.36609 
L 339.652282 -162.583665 
L 338.84417 -161.801241 
L 338.05306 -161.018817 
L 337.286764 -160.236392 
L 336.551804 -159.453968 
L 335.853311 -158.671544 
L 335.194965 -157.889119 
L 334.578988 -157.106695 
L 334.006176 -156.324271 
L 333.47599 -155.541846 
L 332.986693 -154.759422 
L 332.535523 -153.976998 
L 332.118912 -153.194573 
L 331.732719 -152.412149 
L 331.372486 -151.629725 
L 331.033688 -150.8473 
L 330.711967 -150.064876 
L 330.403348 -149.282452 
L 330.104406 -148.500027 
L 329.812401 -147.717603 
L 329.525346 -146.935179 
L 329.242038 -146.152754 
L 328.962033 -145.37033 
L 328.685575 -144.587906 
L 328.413496 -143.805481 
L 328.147083 -143.023057 
L 327.887937 -142.240633 
L 327.637824 -141.458208 
L 327.398535 -140.675784 
L 327.171758 -139.89336 
L 326.958974 -139.110935 
L 326.761375 -138.328511 
L 326.579813 -137.546087 
L 326.414777 -136.763662 
L 326.266385 -135.981238 
L 326.13441 -135.198814 
L 326.018315 -134.416389 
L 325.917302 -133.633965 
z
" style="stroke: #5c5c5c; stroke-width: 1.5"/>
    </defs>
    <g clip-path="url(#p8a7615fb29)">
     <use xlink:href="#m97c1e6a2cc" x="0" y="345.6" style="fill: #e9ae97; stroke: #5c5c5c; stroke-width: 1.5"/>
    </g>
   </g>
   <g id="PolyCollection_6">
    <defs>
     <path id="ma581b3261f" d="M 385.360081 -167.235238 
L 384.559919 -167.235238 
L 384.479456 -168.214098 
L 384.387682 -169.192959 
L 384.284104 -170.17182 
L 384.168443 -171.15068 
L 384.040672 -172.129541 
L 383.901047 -173.108402 
L 383.750133 -174.087262 
L 383.588807 -175.066123 
L 383.418255 -176.044984 
L 383.239943 -177.023844 
L 383.055569 -178.002705 
L 382.867001 -178.981566 
L 382.676193 -179.960426 
L 382.485081 -180.939287 
L 382.29548 -181.918148 
L 382.108963 -182.897008 
L 381.926753 -183.875869 
L 381.749613 -184.85473 
L 381.577761 -185.83359 
L 381.410798 -186.812451 
L 381.247677 -187.791312 
L 381.086692 -188.770172 
L 380.925516 -189.749033 
L 380.761263 -190.727894 
L 380.590591 -191.706754 
L 380.409842 -192.685615 
L 380.21519 -193.664476 
L 380.002822 -194.643336 
L 379.769119 -195.622197 
L 379.510832 -196.601058 
L 379.225256 -197.579918 
L 378.910373 -198.558779 
L 378.564974 -199.53764 
L 378.188741 -200.5165 
L 377.782294 -201.495361 
L 377.347195 -202.474222 
L 376.885912 -203.453082 
L 376.401749 -204.431943 
L 375.898738 -205.410804 
L 375.381506 -206.389664 
L 374.855124 -207.368525 
L 374.324944 -208.347386 
L 373.796428 -209.326246 
L 373.274989 -210.305107 
L 372.765834 -211.283968 
L 372.273832 -212.262828 
L 371.803404 -213.241689 
L 371.358433 -214.22055 
L 370.942209 -215.19941 
L 370.557401 -216.178271 
L 370.206059 -217.157132 
L 369.889644 -218.135992 
L 369.609077 -219.114853 
L 369.364818 -220.093714 
L 369.156952 -221.072574 
L 368.985293 -222.051435 
L 368.849488 -223.030296 
L 368.749125 -224.009156 
L 368.683826 -224.988017 
L 368.653341 -225.966878 
L 368.657606 -226.945738 
L 368.696799 -227.924599 
L 368.771351 -228.90346 
L 368.881944 -229.88232 
L 369.029472 -230.861181 
L 369.214976 -231.840042 
L 369.439556 -232.818902 
L 369.704262 -233.797763 
L 370.009969 -234.776624 
L 370.357246 -235.755484 
L 370.746224 -236.734345 
L 371.17648 -237.713206 
L 371.646926 -238.692066 
L 372.155739 -239.670927 
L 372.700308 -240.649788 
L 373.277228 -241.628648 
L 373.882325 -242.607509 
L 374.510723 -243.58637 
L 375.156945 -244.56523 
L 375.81505 -245.544091 
L 376.478785 -246.522952 
L 377.141763 -247.501812 
L 377.797644 -248.480673 
L 378.440312 -249.459534 
L 379.064047 -250.438394 
L 379.663673 -251.417255 
L 380.23468 -252.396116 
L 380.77332 -253.374976 
L 381.276667 -254.353837 
L 381.742641 -255.332698 
L 382.170005 -256.311558 
L 382.558326 -257.290419 
L 382.90791 -258.26928 
L 383.219725 -259.24814 
L 383.495301 -260.227001 
L 383.736621 -261.205862 
L 383.946019 -262.184722 
L 384.126065 -263.163583 
L 384.279472 -264.142444 
L 385.640528 -264.142444 
L 385.640528 -264.142444 
L 385.793935 -263.163583 
L 385.973981 -262.184722 
L 386.183379 -261.205862 
L 386.424699 -260.227001 
L 386.700275 -259.24814 
L 387.01209 -258.26928 
L 387.361674 -257.290419 
L 387.749995 -256.311558 
L 388.177359 -255.332698 
L 388.643333 -254.353837 
L 389.14668 -253.374976 
L 389.68532 -252.396116 
L 390.256327 -251.417255 
L 390.855953 -250.438394 
L 391.479688 -249.459534 
L 392.122356 -248.480673 
L 392.778237 -247.501812 
L 393.441215 -246.522952 
L 394.10495 -245.544091 
L 394.763055 -244.56523 
L 395.409277 -243.58637 
L 396.037675 -242.607509 
L 396.642772 -241.628648 
L 397.219692 -240.649788 
L 397.764261 -239.670927 
L 398.273074 -238.692066 
L 398.74352 -237.713206 
L 399.173776 -236.734345 
L 399.562754 -235.755484 
L 399.910031 -234.776624 
L 400.215738 -233.797763 
L 400.480444 -232.818902 
L 400.705024 -231.840042 
L 400.890528 -230.861181 
L 401.038056 -229.88232 
L 401.148649 -228.90346 
L 401.223201 -227.924599 
L 401.262394 -226.945738 
L 401.266659 -225.966878 
L 401.236174 -224.988017 
L 401.170875 -224.009156 
L 401.070512 -223.030296 
L 400.934707 -222.051435 
L 400.763048 -221.072574 
L 400.555182 -220.093714 
L 400.310923 -219.114853 
L 400.030356 -218.135992 
L 399.713941 -217.157132 
L 399.362599 -216.178271 
L 398.977791 -215.19941 
L 398.561567 -214.22055 
L 398.116596 -213.241689 
L 397.646168 -212.262828 
L 397.154166 -211.283968 
L 396.645011 -210.305107 
L 396.123572 -209.326246 
L 395.595056 -208.347386 
L 395.064876 -207.368525 
L 394.538494 -206.389664 
L 394.021262 -205.410804 
L 393.518251 -204.431943 
L 393.034088 -203.453082 
L 392.572805 -202.474222 
L 392.137706 -201.495361 
L 391.731259 -200.5165 
L 391.355026 -199.53764 
L 391.009627 -198.558779 
L 390.694744 -197.579918 
L 390.409168 -196.601058 
L 390.150881 -195.622197 
L 389.917178 -194.643336 
L 389.70481 -193.664476 
L 389.510158 -192.685615 
L 389.329409 -191.706754 
L 389.158737 -190.727894 
L 388.994484 -189.749033 
L 388.833308 -188.770172 
L 388.672323 -187.791312 
L 388.509202 -186.812451 
L 388.342239 -185.83359 
L 388.170387 -184.85473 
L 387.993247 -183.875869 
L 387.811037 -182.897008 
L 387.62452 -181.918148 
L 387.434919 -180.939287 
L 387.243807 -179.960426 
L 387.052999 -178.981566 
L 386.864431 -178.002705 
L 386.680057 -177.023844 
L 386.501745 -176.044984 
L 386.331193 -175.066123 
L 386.169867 -174.087262 
L 386.018953 -173.108402 
L 385.879328 -172.129541 
L 385.751557 -171.15068 
L 385.635896 -170.17182 
L 385.532318 -169.192959 
L 385.440544 -168.214098 
L 385.360081 -167.235238 
z
" style="stroke: #5c5c5c; stroke-width: 1.5"/>
    </defs>
    <g clip-path="url(#p8a7615fb29)">
     <use xlink:href="#ma581b3261f" x="0" y="345.6" style="fill: #d07564; stroke: #5c5c5c; stroke-width: 1.5"/>
    </g>
   </g>
   <g id="matplotlib.axis_1">
    <g id="xtick_1">
     <g id="line2d_1">
      <defs>
       <path id="m5fa6fc5d6a" d="M 0 0 
L 0 3.5 
" style="stroke: #000000; stroke-width: 0.8"/>
      </defs>
      <g>
       <use xlink:href="#m5fa6fc5d6a" x="87.36" y="307.584" style="stroke: #000000; stroke-width: 0.8"/>
      </g>
     </g>
     <g id="text_1">
      <!-- Feb 12 -->
      <g transform="translate(70.556875 322.182437) scale(0.1 -0.1)">
       <defs>
        <path id="DejaVuSans-46" d="M 628 4666 
L 3309 4666 
L 3309 4134 
L 1259 4134 
L 1259 2759 
L 3109 2759 
L 3109 2228 
L 1259 2228 
L 1259 0 
L 628 0 
L 628 4666 
z
" transform="scale(0.015625)"/>
        <path id="DejaVuSans-65" d="M 3597 1894 
L 3597 1613 
L 953 1613 
Q 991 1019 1311 708 
Q 1631 397 2203 397 
Q 2534 397 2845 478 
Q 3156 559 3463 722 
L 3463 178 
Q 3153 47 2828 -22 
Q 2503 -91 2169 -91 
Q 1331 -91 842 396 
Q 353 884 353 1716 
Q 353 2575 817 3079 
Q 1281 3584 2069 3584 
Q 2775 3584 3186 3129 
Q 3597 2675 3597 1894 
z
M 3022 2063 
Q 3016 2534 2758 2815 
Q 2500 3097 2075 3097 
Q 1594 3097 1305 2825 
Q 1016 2553 972 2059 
L 3022 2063 
z
" transform="scale(0.015625)"/>
        <path id="DejaVuSans-62" d="M 3116 1747 
Q 3116 2381 2855 2742 
Q 2594 3103 2138 3103 
Q 1681 3103 1420 2742 
Q 1159 2381 1159 1747 
Q 1159 1113 1420 752 
Q 1681 391 2138 391 
Q 2594 391 2855 752 
Q 3116 1113 3116 1747 
z
M 1159 2969 
Q 1341 3281 1617 3432 
Q 1894 3584 2278 3584 
Q 2916 3584 3314 3078 
Q 3713 2572 3713 1747 
Q 3713 922 3314 415 
Q 2916 -91 2278 -91 
Q 1894 -91 1617 61 
Q 1341 213 1159 525 
L 1159 0 
L 581 0 
L 581 4863 
L 1159 4863 
L 1159 2969 
z
" transform="scale(0.015625)"/>
        <path id="DejaVuSans-20" transform="scale(0.015625)"/>
        <path id="DejaVuSans-31" d="M 794 531 
L 1825 531 
L 1825 4091 
L 703 3866 
L 703 4441 
L 1819 4666 
L 2450 4666 
L 2450 531 
L 3481 531 
L 3481 0 
L 794 0 
L 794 531 
z
" transform="scale(0.015625)"/>
        <path id="DejaVuSans-32" d="M 1228 531 
L 3431 531 
L 3431 0 
L 469 0 
L 469 531 
Q 828 903 1448 1529 
Q 2069 2156 2228 2338 
Q 2531 2678 2651 2914 
Q 2772 3150 2772 3378 
Q 2772 3750 2511 3984 
Q 2250 4219 1831 4219 
Q 1534 4219 1204 4116 
Q 875 4013 500 3803 
L 500 4441 
Q 881 4594 1212 4672 
Q 1544 4750 1819 4750 
Q 2544 4750 2975 4387 
Q 3406 4025 3406 3419 
Q 3406 3131 3298 2873 
Q 3191 2616 2906 2266 
Q 2828 2175 2409 1742 
Q 1991 1309 1228 531 
z
" transform="scale(0.015625)"/>
       </defs>
       <use xlink:href="#DejaVuSans-46"/>
       <use xlink:href="#DejaVuSans-65" x="52.019531"/>
       <use xlink:href="#DejaVuSans-62" x="113.542969"/>
       <use xlink:href="#DejaVuSans-20" x="177.019531"/>
       <use xlink:href="#DejaVuSans-31" x="208.806641"/>
       <use xlink:href="#DejaVuSans-32" x="272.429688"/>
      </g>
     </g>
    </g>
    <g id="xtick_2">
     <g id="line2d_2">
      <g>
       <use xlink:href="#m5fa6fc5d6a" x="146.88" y="307.584" style="stroke: #000000; stroke-width: 0.8"/>
      </g>
     </g>
     <g id="text_2">
      <!-- Mar 25 -->
      <g transform="translate(129.494844 322.182437) scale(0.1 -0.1)">
       <defs>
        <path id="DejaVuSans-4d" d="M 628 4666 
L 1569 4666 
L 2759 1491 
L 3956 4666 
L 4897 4666 
L 4897 0 
L 4281 0 
L 4281 4097 
L 3078 897 
L 2444 897 
L 1241 4097 
L 1241 0 
L 628 0 
L 628 4666 
z
" transform="scale(0.015625)"/>
        <path id="DejaVuSans-61" d="M 2194 1759 
Q 1497 1759 1228 1600 
Q 959 1441 959 1056 
Q 959 750 1161 570 
Q 1363 391 1709 391 
Q 2188 391 2477 730 
Q 2766 1069 2766 1631 
L 2766 1759 
L 2194 1759 
z
M 3341 1997 
L 3341 0 
L 2766 0 
L 2766 531 
Q 2569 213 2275 61 
Q 1981 -91 1556 -91 
Q 1019 -91 701 211 
Q 384 513 384 1019 
Q 384 1609 779 1909 
Q 1175 2209 1959 2209 
L 2766 2209 
L 2766 2266 
Q 2766 2663 2505 2880 
Q 2244 3097 1772 3097 
Q 1472 3097 1187 3025 
Q 903 2953 641 2809 
L 641 3341 
Q 956 3463 1253 3523 
Q 1550 3584 1831 3584 
Q 2591 3584 2966 3190 
Q 3341 2797 3341 1997 
z
" transform="scale(0.015625)"/>
        <path id="DejaVuSans-72" d="M 2631 2963 
Q 2534 3019 2420 3045 
Q 2306 3072 2169 3072 
Q 1681 3072 1420 2755 
Q 1159 2438 1159 1844 
L 1159 0 
L 581 0 
L 581 3500 
L 1159 3500 
L 1159 2956 
Q 1341 3275 1631 3429 
Q 1922 3584 2338 3584 
Q 2397 3584 2469 3576 
Q 2541 3569 2628 3553 
L 2631 2963 
z
" transform="scale(0.015625)"/>
        <path id="DejaVuSans-35" d="M 691 4666 
L 3169 4666 
L 3169 4134 
L 1269 4134 
L 1269 2991 
Q 1406 3038 1543 3061 
Q 1681 3084 1819 3084 
Q 2600 3084 3056 2656 
Q 3513 2228 3513 1497 
Q 3513 744 3044 326 
Q 2575 -91 1722 -91 
Q 1428 -91 1123 -41 
Q 819 9 494 109 
L 494 744 
Q 775 591 1075 516 
Q 1375 441 1709 441 
Q 2250 441 2565 725 
Q 2881 1009 2881 1497 
Q 2881 1984 2565 2268 
Q 2250 2553 1709 2553 
Q 1456 2553 1204 2497 
Q 953 2441 691 2322 
L 691 4666 
z
" transform="scale(0.015625)"/>
       </defs>
       <use xlink:href="#DejaVuSans-4d"/>
       <use xlink:href="#DejaVuSans-61" x="86.279297"/>
       <use xlink:href="#DejaVuSans-72" x="147.558594"/>
       <use xlink:href="#DejaVuSans-20" x="188.671875"/>
       <use xlink:href="#DejaVuSans-32" x="220.458984"/>
       <use xlink:href="#DejaVuSans-35" x="284.082031"/>
      </g>
     </g>
    </g>
    <g id="xtick_3">
     <g id="line2d_3">
      <g>
       <use xlink:href="#m5fa6fc5d6a" x="206.4" y="307.584" style="stroke: #000000; stroke-width: 0.8"/>
      </g>
     </g>
     <g id="text_3">
      <!-- Apr 07 -->
      <g transform="translate(189.798437 322.182437) scale(0.1 -0.1)">
       <defs>
        <path id="DejaVuSans-41" d="M 2188 4044 
L 1331 1722 
L 3047 1722 
L 2188 4044 
z
M 1831 4666 
L 2547 4666 
L 4325 0 
L 3669 0 
L 3244 1197 
L 1141 1197 
L 716 0 
L 50 0 
L 1831 4666 
z
" transform="scale(0.015625)"/>
        <path id="DejaVuSans-70" d="M 1159 525 
L 1159 -1331 
L 581 -1331 
L 581 3500 
L 1159 3500 
L 1159 2969 
Q 1341 3281 1617 3432 
Q 1894 3584 2278 3584 
Q 2916 3584 3314 3078 
Q 3713 2572 3713 1747 
Q 3713 922 3314 415 
Q 2916 -91 2278 -91 
Q 1894 -91 1617 61 
Q 1341 213 1159 525 
z
M 3116 1747 
Q 3116 2381 2855 2742 
Q 2594 3103 2138 3103 
Q 1681 3103 1420 2742 
Q 1159 2381 1159 1747 
Q 1159 1113 1420 752 
Q 1681 391 2138 391 
Q 2594 391 2855 752 
Q 3116 1113 3116 1747 
z
" transform="scale(0.015625)"/>
        <path id="DejaVuSans-30" d="M 2034 4250 
Q 1547 4250 1301 3770 
Q 1056 3291 1056 2328 
Q 1056 1369 1301 889 
Q 1547 409 2034 409 
Q 2525 409 2770 889 
Q 3016 1369 3016 2328 
Q 3016 3291 2770 3770 
Q 2525 4250 2034 4250 
z
M 2034 4750 
Q 2819 4750 3233 4129 
Q 3647 3509 3647 2328 
Q 3647 1150 3233 529 
Q 2819 -91 2034 -91 
Q 1250 -91 836 529 
Q 422 1150 422 2328 
Q 422 3509 836 4129 
Q 1250 4750 2034 4750 
z
" transform="scale(0.015625)"/>
        <path id="DejaVuSans-37" d="M 525 4666 
L 3525 4666 
L 3525 4397 
L 1831 0 
L 1172 0 
L 2766 4134 
L 525 4134 
L 525 4666 
z
" transform="scale(0.015625)"/>
       </defs>
       <use xlink:href="#DejaVuSans-41"/>
       <use xlink:href="#DejaVuSans-70" x="68.408203"/>
       <use xlink:href="#DejaVuSans-72" x="131.884766"/>
       <use xlink:href="#DejaVuSans-20" x="172.998047"/>
       <use xlink:href="#DejaVuSans-30" x="204.785156"/>
       <use xlink:href="#DejaVuSans-37" x="268.408203"/>
      </g>
     </g>
    </g>
    <g id="xtick_4">
     <g id="line2d_4">
      <g>
       <use xlink:href="#m5fa6fc5d6a" x="265.92" y="307.584" style="stroke: #000000; stroke-width: 0.8"/>
      </g>
     </g>
     <g id="text_4">
      <!-- May 05 -->
      <g transform="translate(247.630938 322.182437) scale(0.1 -0.1)">
       <defs>
        <path id="DejaVuSans-79" d="M 2059 -325 
Q 1816 -950 1584 -1140 
Q 1353 -1331 966 -1331 
L 506 -1331 
L 506 -850 
L 844 -850 
Q 1081 -850 1212 -737 
Q 1344 -625 1503 -206 
L 1606 56 
L 191 3500 
L 800 3500 
L 1894 763 
L 2988 3500 
L 3597 3500 
L 2059 -325 
z
" transform="scale(0.015625)"/>
       </defs>
       <use xlink:href="#DejaVuSans-4d"/>
       <use xlink:href="#DejaVuSans-61" x="86.279297"/>
       <use xlink:href="#DejaVuSans-79" x="147.558594"/>
       <use xlink:href="#DejaVuSans-20" x="206.738281"/>
       <use xlink:href="#DejaVuSans-30" x="238.525391"/>
       <use xlink:href="#DejaVuSans-35" x="302.148438"/>
      </g>
     </g>
    </g>
    <g id="xtick_5">
     <g id="line2d_5">
      <g>
       <use xlink:href="#m5fa6fc5d6a" x="325.44" y="307.584" style="stroke: #000000; stroke-width: 0.8"/>
      </g>
     </g>
     <g id="text_5">
      <!-- May 10 -->
      <g transform="translate(307.150937 322.182437) scale(0.1 -0.1)">
       <use xlink:href="#DejaVuSans-4d"/>
       <use xlink:href="#DejaVuSans-61" x="86.279297"/>
       <use xlink:href="#DejaVuSans-79" x="147.558594"/>
       <use xlink:href="#DejaVuSans-20" x="206.738281"/>
       <use xlink:href="#DejaVuSans-31" x="238.525391"/>
       <use xlink:href="#DejaVuSans-30" x="302.148438"/>
      </g>
     </g>
    </g>
    <g id="xtick_6">
     <g id="line2d_6">
      <g>
       <use xlink:href="#m5fa6fc5d6a" x="384.96" y="307.584" style="stroke: #000000; stroke-width: 0.8"/>
      </g>
     </g>
     <g id="text_6">
      <!-- May 17 -->
      <g transform="translate(366.670937 322.182437) scale(0.1 -0.1)">
       <use xlink:href="#DejaVuSans-4d"/>
       <use xlink:href="#DejaVuSans-61" x="86.279297"/>
       <use xlink:href="#DejaVuSans-79" x="147.558594"/>
       <use xlink:href="#DejaVuSans-20" x="206.738281"/>
       <use xlink:href="#DejaVuSans-31" x="238.525391"/>
       <use xlink:href="#DejaVuSans-37" x="302.148438"/>
      </g>
     </g>
    </g>
    <g id="text_7">
     <!-- Date -->
     <g transform="translate(224.209219 335.860562) scale(0.1 -0.1)">
      <defs>
       <path id="DejaVuSans-44" d="M 1259 4147 
L 1259 519 
L 2022 519 
Q 2988 519 3436 956 
Q 3884 1394 3884 2338 
Q 3884 3275 3436 3711 
Q 2988 4147 2022 4147 
L 1259 4147 
z
M 628 4666 
L 1925 4666 
Q 3281 4666 3915 4102 
Q 4550 3538 4550 2338 
Q 4550 1131 3912 565 
Q 3275 0 1925 0 
L 628 0 
L 628 4666 
z
" transform="scale(0.015625)"/>
       <path id="DejaVuSans-74" d="M 1172 4494 
L 1172 3500 
L 2356 3500 
L 2356 3053 
L 1172 3053 
L 1172 1153 
Q 1172 725 1289 603 
Q 1406 481 1766 481 
L 2356 481 
L 2356 0 
L 1766 0 
Q 1100 0 847 248 
Q 594 497 594 1153 
L 594 3053 
L 172 3053 
L 172 3500 
L 594 3500 
L 594 4494 
L 1172 4494 
z
" transform="scale(0.015625)"/>
      </defs>
      <use xlink:href="#DejaVuSans-44"/>
      <use xlink:href="#DejaVuSans-61" x="77.001953"/>
      <use xlink:href="#DejaVuSans-74" x="138.28125"/>
      <use xlink:href="#DejaVuSans-65" x="177.490234"/>
     </g>
    </g>
   </g>
   <g id="matplotlib.axis_2">
    <g id="ytick_1">
     <g id="line2d_7">
      <defs>
       <path id="m244364d6c3" d="M 0 0 
L -3.5 0 
" style="stroke: #000000; stroke-width: 0.8"/>
      </defs>
      <g>
       <use xlink:href="#m244364d6c3" x="57.6" y="307.584" style="stroke: #000000; stroke-width: 0.8"/>
      </g>
     </g>
     <g id="text_8">
      <!-- 15 -->
      <g transform="translate(37.875 311.383219) scale(0.1 -0.1)">
       <use xlink:href="#DejaVuSans-31"/>
       <use xlink:href="#DejaVuSans-35" x="63.623047"/>
      </g>
     </g>
    </g>
    <g id="ytick_2">
     <g id="line2d_8">
      <g>
       <use xlink:href="#m244364d6c3" x="57.6" y="274.32" style="stroke: #000000; stroke-width: 0.8"/>
      </g>
     </g>
     <g id="text_9">
      <!-- 20 -->
      <g transform="translate(37.875 278.119219) scale(0.1 -0.1)">
       <use xlink:href="#DejaVuSans-32"/>
       <use xlink:href="#DejaVuSans-30" x="63.623047"/>
      </g>
     </g>
    </g>
    <g id="ytick_3">
     <g id="line2d_9">
      <g>
       <use xlink:href="#m244364d6c3" x="57.6" y="241.056" style="stroke: #000000; stroke-width: 0.8"/>
      </g>
     </g>
     <g id="text_10">
      <!-- 25 -->
      <g transform="translate(37.875 244.855219) scale(0.1 -0.1)">
       <use xlink:href="#DejaVuSans-32"/>
       <use xlink:href="#DejaVuSans-35" x="63.623047"/>
      </g>
     </g>
    </g>
    <g id="ytick_4">
     <g id="line2d_10">
      <g>
       <use xlink:href="#m244364d6c3" x="57.6" y="207.792" style="stroke: #000000; stroke-width: 0.8"/>
      </g>
     </g>
     <g id="text_11">
      <!-- 30 -->
      <g transform="translate(37.875 211.591219) scale(0.1 -0.1)">
       <defs>
        <path id="DejaVuSans-33" d="M 2597 2516 
Q 3050 2419 3304 2112 
Q 3559 1806 3559 1356 
Q 3559 666 3084 287 
Q 2609 -91 1734 -91 
Q 1441 -91 1130 -33 
Q 819 25 488 141 
L 488 750 
Q 750 597 1062 519 
Q 1375 441 1716 441 
Q 2309 441 2620 675 
Q 2931 909 2931 1356 
Q 2931 1769 2642 2001 
Q 2353 2234 1838 2234 
L 1294 2234 
L 1294 2753 
L 1863 2753 
Q 2328 2753 2575 2939 
Q 2822 3125 2822 3475 
Q 2822 3834 2567 4026 
Q 2313 4219 1838 4219 
Q 1578 4219 1281 4162 
Q 984 4106 628 3988 
L 628 4550 
Q 988 4650 1302 4700 
Q 1616 4750 1894 4750 
Q 2613 4750 3031 4423 
Q 3450 4097 3450 3541 
Q 3450 3153 3228 2886 
Q 3006 2619 2597 2516 
z
" transform="scale(0.015625)"/>
       </defs>
       <use xlink:href="#DejaVuSans-33"/>
       <use xlink:href="#DejaVuSans-30" x="63.623047"/>
      </g>
     </g>
    </g>
    <g id="ytick_5">
     <g id="line2d_11">
      <g>
       <use xlink:href="#m244364d6c3" x="57.6" y="174.528" style="stroke: #000000; stroke-width: 0.8"/>
      </g>
     </g>
     <g id="text_12">
      <!-- 35 -->
      <g transform="translate(37.875 178.327219) scale(0.1 -0.1)">
       <use xlink:href="#DejaVuSans-33"/>
       <use xlink:href="#DejaVuSans-35" x="63.623047"/>
      </g>
     </g>
    </g>
    <g id="ytick_6">
     <g id="line2d_12">
      <g>
       <use xlink:href="#m244364d6c3" x="57.6" y="141.264" style="stroke: #000000; stroke-width: 0.8"/>
      </g>
     </g>
     <g id="text_13">
      <!-- 40 -->
      <g transform="translate(37.875 145.063219) scale(0.1 -0.1)">
       <defs>
        <path id="DejaVuSans-34" d="M 2419 4116 
L 825 1625 
L 2419 1625 
L 2419 4116 
z
M 2253 4666 
L 3047 4666 
L 3047 1625 
L 3713 1625 
L 3713 1100 
L 3047 1100 
L 3047 0 
L 2419 0 
L 2419 1100 
L 313 1100 
L 313 1709 
L 2253 4666 
z
" transform="scale(0.015625)"/>
       </defs>
       <use xlink:href="#DejaVuSans-34"/>
       <use xlink:href="#DejaVuSans-30" x="63.623047"/>
      </g>
     </g>
    </g>
    <g id="ytick_7">
     <g id="line2d_13">
      <g>
       <use xlink:href="#m244364d6c3" x="57.6" y="108" style="stroke: #000000; stroke-width: 0.8"/>
      </g>
     </g>
     <g id="text_14">
      <!-- 45 -->
      <g transform="translate(37.875 111.799219) scale(0.1 -0.1)">
       <use xlink:href="#DejaVuSans-34"/>
       <use xlink:href="#DejaVuSans-35" x="63.623047"/>
      </g>
     </g>
    </g>
    <g id="ytick_8">
     <g id="line2d_14">
      <g>
       <use xlink:href="#m244364d6c3" x="57.6" y="74.736" style="stroke: #000000; stroke-width: 0.8"/>
      </g>
     </g>
     <g id="text_15">
      <!-- 50 -->
      <g transform="translate(37.875 78.535219) scale(0.1 -0.1)">
       <use xlink:href="#DejaVuSans-35"/>
       <use xlink:href="#DejaVuSans-30" x="63.623047"/>
      </g>
     </g>
    </g>
    <g id="ytick_9">
     <g id="line2d_15">
      <g>
       <use xlink:href="#m244364d6c3" x="57.6" y="41.472" style="stroke: #000000; stroke-width: 0.8"/>
      </g>
     </g>
     <g id="text_16">
      <!-- 55 -->
      <g transform="translate(37.875 45.271219) scale(0.1 -0.1)">
       <use xlink:href="#DejaVuSans-35"/>
       <use xlink:href="#DejaVuSans-35" x="63.623047"/>
      </g>
     </g>
    </g>
    <g id="text_17">
     <!-- Density % -->
     <g transform="translate(31.795312 199.876438) rotate(-90) scale(0.1 -0.1)">
      <defs>
       <path id="DejaVuSans-6e" d="M 3513 2113 
L 3513 0 
L 2938 0 
L 2938 2094 
Q 2938 2591 2744 2837 
Q 2550 3084 2163 3084 
Q 1697 3084 1428 2787 
Q 1159 2491 1159 1978 
L 1159 0 
L 581 0 
L 581 3500 
L 1159 3500 
L 1159 2956 
Q 1366 3272 1645 3428 
Q 1925 3584 2291 3584 
Q 2894 3584 3203 3211 
Q 3513 2838 3513 2113 
z
" transform="scale(0.015625)"/>
       <path id="DejaVuSans-73" d="M 2834 3397 
L 2834 2853 
Q 2591 2978 2328 3040 
Q 2066 3103 1784 3103 
Q 1356 3103 1142 2972 
Q 928 2841 928 2578 
Q 928 2378 1081 2264 
Q 1234 2150 1697 2047 
L 1894 2003 
Q 2506 1872 2764 1633 
Q 3022 1394 3022 966 
Q 3022 478 2636 193 
Q 2250 -91 1575 -91 
Q 1294 -91 989 -36 
Q 684 19 347 128 
L 347 722 
Q 666 556 975 473 
Q 1284 391 1588 391 
Q 1994 391 2212 530 
Q 2431 669 2431 922 
Q 2431 1156 2273 1281 
Q 2116 1406 1581 1522 
L 1381 1569 
Q 847 1681 609 1914 
Q 372 2147 372 2553 
Q 372 3047 722 3315 
Q 1072 3584 1716 3584 
Q 2034 3584 2315 3537 
Q 2597 3491 2834 3397 
z
" transform="scale(0.015625)"/>
       <path id="DejaVuSans-69" d="M 603 3500 
L 1178 3500 
L 1178 0 
L 603 0 
L 603 3500 
z
M 603 4863 
L 1178 4863 
L 1178 4134 
L 603 4134 
L 603 4863 
z
" transform="scale(0.015625)"/>
       <path id="DejaVuSans-25" d="M 4653 2053 
Q 4381 2053 4226 1822 
Q 4072 1591 4072 1178 
Q 4072 772 4226 539 
Q 4381 306 4653 306 
Q 4919 306 5073 539 
Q 5228 772 5228 1178 
Q 5228 1588 5073 1820 
Q 4919 2053 4653 2053 
z
M 4653 2450 
Q 5147 2450 5437 2106 
Q 5728 1763 5728 1178 
Q 5728 594 5436 251 
Q 5144 -91 4653 -91 
Q 4153 -91 3862 251 
Q 3572 594 3572 1178 
Q 3572 1766 3864 2108 
Q 4156 2450 4653 2450 
z
M 1428 4353 
Q 1159 4353 1004 4120 
Q 850 3888 850 3481 
Q 850 3069 1003 2837 
Q 1156 2606 1428 2606 
Q 1700 2606 1854 2837 
Q 2009 3069 2009 3481 
Q 2009 3884 1853 4118 
Q 1697 4353 1428 4353 
z
M 4250 4750 
L 4750 4750 
L 1831 -91 
L 1331 -91 
L 4250 4750 
z
M 1428 4750 
Q 1922 4750 2215 4408 
Q 2509 4066 2509 3481 
Q 2509 2891 2217 2550 
Q 1925 2209 1428 2209 
Q 931 2209 642 2551 
Q 353 2894 353 3481 
Q 353 4063 643 4406 
Q 934 4750 1428 4750 
z
" transform="scale(0.015625)"/>
      </defs>
      <use xlink:href="#DejaVuSans-44"/>
      <use xlink:href="#DejaVuSans-65" x="77.001953"/>
      <use xlink:href="#DejaVuSans-6e" x="138.525391"/>
      <use xlink:href="#DejaVuSans-73" x="201.904297"/>
      <use xlink:href="#DejaVuSans-69" x="254.003906"/>
      <use xlink:href="#DejaVuSans-74" x="281.787109"/>
      <use xlink:href="#DejaVuSans-79" x="320.996094"/>
      <use xlink:href="#DejaVuSans-20" x="380.175781"/>
      <use xlink:href="#DejaVuSans-25" x="411.962891"/>
     </g>
    </g>
   </g>
   <g id="line2d_16">
    <path d="M 87.36 221.383744 
L 87.36 171.878655 
" clip-path="url(#p8a7615fb29)" style="fill: none; stroke: #5c5c5c; stroke-width: 1.5; stroke-linecap: square"/>
   </g>
   <g id="line2d_17">
    <path d="M 87.36 194.4864 
L 87.36 176.388179 
" clip-path="url(#p8a7615fb29)" style="fill: none; stroke: #5c5c5c; stroke-width: 4.5; stroke-linecap: square"/>
   </g>
   <g id="line2d_18">
    <path d="M 146.88 229.74624 
L 146.88 199.14336 
" clip-path="url(#p8a7615fb29)" style="fill: none; stroke: #5c5c5c; stroke-width: 1.5; stroke-linecap: square"/>
   </g>
   <g id="line2d_19">
    <path d="M 146.88 227.7504 
L 146.88 209.78784 
" clip-path="url(#p8a7615fb29)" style="fill: none; stroke: #5c5c5c; stroke-width: 4.5; stroke-linecap: square"/>
   </g>
   <g id="line2d_20">
    <path d="M 206.4 175.974261 
L 206.4 160.028308 
" clip-path="url(#p8a7615fb29)" style="fill: none; stroke: #5c5c5c; stroke-width: 1.5; stroke-linecap: square"/>
   </g>
   <g id="line2d_21">
    <path d="M 206.4 172.293702 
L 206.4 163.740255 
" clip-path="url(#p8a7615fb29)" style="fill: none; stroke: #5c5c5c; stroke-width: 4.5; stroke-linecap: square"/>
   </g>
   <g id="line2d_22">
    <path d="M 265.92 151.499077 
L 265.92 118.572279 
" clip-path="url(#p8a7615fb29)" style="fill: none; stroke: #5c5c5c; stroke-width: 1.5; stroke-linecap: square"/>
   </g>
   <g id="line2d_23">
    <path d="M 265.92 142.939165 
L 265.92 128.701609 
" clip-path="url(#p8a7615fb29)" style="fill: none; stroke: #5c5c5c; stroke-width: 4.5; stroke-linecap: square"/>
   </g>
   <g id="line2d_24">
    <path d="M 325.44 195.870798 
L 325.44 150.601263 
" clip-path="url(#p8a7615fb29)" style="fill: none; stroke: #5c5c5c; stroke-width: 1.5; stroke-linecap: square"/>
   </g>
   <g id="line2d_25">
    <path d="M 325.44 177.924701 
L 325.44 163.654884 
" clip-path="url(#p8a7615fb29)" style="fill: none; stroke: #5c5c5c; stroke-width: 4.5; stroke-linecap: square"/>
   </g>
   <g id="line2d_26">
    <path d="M 384.96 157.366319 
L 384.96 102.456 
" clip-path="url(#p8a7615fb29)" style="fill: none; stroke: #5c5c5c; stroke-width: 1.5; stroke-linecap: square"/>
   </g>
   <g id="line2d_27">
    <path d="M 384.96 131.429426 
L 384.96 110.745323 
" clip-path="url(#p8a7615fb29)" style="fill: none; stroke: #5c5c5c; stroke-width: 4.5; stroke-linecap: square"/>
   </g>
   <g id="patch_3">
    <path d="M 57.6 307.584 
L 57.6 41.472 
" style="fill: none; stroke: #000000; stroke-width: 0.8; stroke-linejoin: miter; stroke-linecap: square"/>
   </g>
   <g id="patch_4">
    <path d="M 57.6 307.584 
L 414.72 307.584 
" style="fill: none; stroke: #000000; stroke-width: 0.8; stroke-linejoin: miter; stroke-linecap: square"/>
   </g>
   <g id="PathCollection_1">
    <defs>
     <path id="m40b59f41ee" d="M 0 1.5 
C 0.397805 1.5 0.77937 1.341951 1.06066 1.06066 
C 1.341951 0.77937 1.5 0.397805 1.5 0 
C 1.5 -0.397805 1.341951 -0.77937 1.06066 -1.06066 
C 0.77937 -1.341951 0.397805 -1.5 0 -1.5 
C -0.397805 -1.5 -0.77937 -1.341951 -1.06066 -1.06066 
C -1.341951 -0.77937 -1.5 -0.397805 -1.5 0 
C -1.5 0.397805 -1.341951 0.77937 -1.06066 1.06066 
C -0.77937 1.341951 -0.397805 1.5 0 1.5 
z
" style="stroke: #5c5c5c"/>
    </defs>
    <g clip-path="url(#p8a7615fb29)">
     <use xlink:href="#m40b59f41ee" x="87.36" y="188.052923" style="fill: #ffffff; stroke: #5c5c5c"/>
    </g>
   </g>
   <g id="PathCollection_2">
    <g clip-path="url(#p8a7615fb29)">
     <use xlink:href="#m40b59f41ee" x="146.88" y="218.43648" style="fill: #ffffff; stroke: #5c5c5c"/>
    </g>
   </g>
   <g id="PathCollection_3">
    <g clip-path="url(#p8a7615fb29)">
     <use xlink:href="#m40b59f41ee" x="206.4" y="166.267812" style="fill: #ffffff; stroke: #5c5c5c"/>
    </g>
   </g>
   <g id="PathCollection_4">
    <g clip-path="url(#p8a7615fb29)">
     <use xlink:href="#m40b59f41ee" x="265.92" y="136.871652" style="fill: #ffffff; stroke: #5c5c5c"/>
    </g>
   </g>
   <g id="PathCollection_5">
    <g clip-path="url(#p8a7615fb29)">
     <use xlink:href="#m40b59f41ee" x="325.44" y="171.433674" style="fill: #ffffff; stroke: #5c5c5c"/>
    </g>
   </g>
   <g id="PathCollection_6">
    <g clip-path="url(#p8a7615fb29)">
     <use xlink:href="#m40b59f41ee" x="384.96" y="121.591573" style="fill: #ffffff; stroke: #5c5c5c"/>
    </g>
   </g>
   <g id="text_18">
    <!-- n: 15 -->
    <g transform="translate(73.102969 119.698212) scale(0.1 -0.1)">
     <defs>
      <path id="DejaVuSans-Bold-6e" d="M 4056 2131 
L 4056 0 
L 2931 0 
L 2931 347 
L 2931 1631 
Q 2931 2084 2911 2256 
Q 2891 2428 2841 2509 
Q 2775 2619 2662 2680 
Q 2550 2741 2406 2741 
Q 2056 2741 1856 2470 
Q 1656 2200 1656 1722 
L 1656 0 
L 538 0 
L 538 3500 
L 1656 3500 
L 1656 2988 
Q 1909 3294 2193 3439 
Q 2478 3584 2822 3584 
Q 3428 3584 3742 3212 
Q 4056 2841 4056 2131 
z
" transform="scale(0.015625)"/>
      <path id="DejaVuSans-Bold-3a" d="M 716 3500 
L 1844 3500 
L 1844 2291 
L 716 2291 
L 716 3500 
z
M 716 1209 
L 1844 1209 
L 1844 0 
L 716 0 
L 716 1209 
z
" transform="scale(0.015625)"/>
      <path id="DejaVuSans-Bold-20" transform="scale(0.015625)"/>
      <path id="DejaVuSans-Bold-31" d="M 750 831 
L 1813 831 
L 1813 3847 
L 722 3622 
L 722 4441 
L 1806 4666 
L 2950 4666 
L 2950 831 
L 4013 831 
L 4013 0 
L 750 0 
L 750 831 
z
" transform="scale(0.015625)"/>
      <path id="DejaVuSans-Bold-35" d="M 678 4666 
L 3669 4666 
L 3669 3781 
L 1638 3781 
L 1638 3059 
Q 1775 3097 1914 3117 
Q 2053 3138 2203 3138 
Q 3056 3138 3531 2711 
Q 4006 2284 4006 1522 
Q 4006 766 3489 337 
Q 2972 -91 2053 -91 
Q 1656 -91 1267 -14 
Q 878 63 494 219 
L 494 1166 
Q 875 947 1217 837 
Q 1559 728 1863 728 
Q 2300 728 2551 942 
Q 2803 1156 2803 1522 
Q 2803 1891 2551 2103 
Q 2300 2316 1863 2316 
Q 1603 2316 1309 2248 
Q 1016 2181 678 2041 
L 678 4666 
z
" transform="scale(0.015625)"/>
     </defs>
     <use xlink:href="#DejaVuSans-Bold-6e"/>
     <use xlink:href="#DejaVuSans-Bold-3a" x="71.191406"/>
     <use xlink:href="#DejaVuSans-Bold-20" x="111.181641"/>
     <use xlink:href="#DejaVuSans-Bold-31" x="145.996094"/>
     <use xlink:href="#DejaVuSans-Bold-35" x="215.576172"/>
    </g>
   </g>
   <g id="text_19">
    <!-- n: 15 -->
    <g transform="translate(132.622969 141.483323) scale(0.1 -0.1)">
     <use xlink:href="#DejaVuSans-Bold-6e"/>
     <use xlink:href="#DejaVuSans-Bold-3a" x="71.191406"/>
     <use xlink:href="#DejaVuSans-Bold-20" x="111.181641"/>
     <use xlink:href="#DejaVuSans-Bold-31" x="145.996094"/>
     <use xlink:href="#DejaVuSans-Bold-35" x="215.576172"/>
    </g>
   </g>
   <g id="text_20">
    <!-- n: 11 -->
    <g transform="translate(192.142969 171.86688) scale(0.1 -0.1)">
     <use xlink:href="#DejaVuSans-Bold-6e"/>
     <use xlink:href="#DejaVuSans-Bold-3a" x="71.191406"/>
     <use xlink:href="#DejaVuSans-Bold-20" x="111.181641"/>
     <use xlink:href="#DejaVuSans-Bold-31" x="145.996094"/>
     <use xlink:href="#DejaVuSans-Bold-31" x="215.576172"/>
    </g>
   </g>
   <g id="text_21">
    <!-- n: 11 -->
    <g transform="translate(251.662969 90.302052) scale(0.1 -0.1)">
     <use xlink:href="#DejaVuSans-Bold-6e"/>
     <use xlink:href="#DejaVuSans-Bold-3a" x="71.191406"/>
     <use xlink:href="#DejaVuSans-Bold-20" x="111.181641"/>
     <use xlink:href="#DejaVuSans-Bold-31" x="145.996094"/>
     <use xlink:href="#DejaVuSans-Bold-31" x="215.576172"/>
    </g>
   </g>
   <g id="text_22">
    <!-- n: 10 -->
    <g transform="translate(311.182969 124.864074) scale(0.1 -0.1)">
     <defs>
      <path id="DejaVuSans-Bold-30" d="M 2944 2338 
Q 2944 3213 2780 3570 
Q 2616 3928 2228 3928 
Q 1841 3928 1675 3570 
Q 1509 3213 1509 2338 
Q 1509 1453 1675 1090 
Q 1841 728 2228 728 
Q 2613 728 2778 1090 
Q 2944 1453 2944 2338 
z
M 4147 2328 
Q 4147 1169 3647 539 
Q 3147 -91 2228 -91 
Q 1306 -91 806 539 
Q 306 1169 306 2328 
Q 306 3491 806 4120 
Q 1306 4750 2228 4750 
Q 3147 4750 3647 4120 
Q 4147 3491 4147 2328 
z
" transform="scale(0.015625)"/>
     </defs>
     <use xlink:href="#DejaVuSans-Bold-6e"/>
     <use xlink:href="#DejaVuSans-Bold-3a" x="71.191406"/>
     <use xlink:href="#DejaVuSans-Bold-20" x="111.181641"/>
     <use xlink:href="#DejaVuSans-Bold-31" x="145.996094"/>
     <use xlink:href="#DejaVuSans-Bold-30" x="215.576172"/>
    </g>
   </g>
   <g id="text_23">
    <!-- n: 10 -->
    <g transform="translate(370.702969 75.021973) scale(0.1 -0.1)">
     <use xlink:href="#DejaVuSans-Bold-6e"/>
     <use xlink:href="#DejaVuSans-Bold-3a" x="71.191406"/>
     <use xlink:href="#DejaVuSans-Bold-20" x="111.181641"/>
     <use xlink:href="#DejaVuSans-Bold-31" x="145.996094"/>
     <use xlink:href="#DejaVuSans-Bold-30" x="215.576172"/>
    </g>
   </g>
   <g id="text_24">
    <!-- Manual Density Measurements by Date -->
    <g transform="translate(117.904687 35.472) scale(0.12 -0.12)">
     <defs>
      <path id="DejaVuSans-75" d="M 544 1381 
L 544 3500 
L 1119 3500 
L 1119 1403 
Q 1119 906 1312 657 
Q 1506 409 1894 409 
Q 2359 409 2629 706 
Q 2900 1003 2900 1516 
L 2900 3500 
L 3475 3500 
L 3475 0 
L 2900 0 
L 2900 538 
Q 2691 219 2414 64 
Q 2138 -91 1772 -91 
Q 1169 -91 856 284 
Q 544 659 544 1381 
z
M 1991 3584 
L 1991 3584 
z
" transform="scale(0.015625)"/>
      <path id="DejaVuSans-6c" d="M 603 4863 
L 1178 4863 
L 1178 0 
L 603 0 
L 603 4863 
z
" transform="scale(0.015625)"/>
      <path id="DejaVuSans-6d" d="M 3328 2828 
Q 3544 3216 3844 3400 
Q 4144 3584 4550 3584 
Q 5097 3584 5394 3201 
Q 5691 2819 5691 2113 
L 5691 0 
L 5113 0 
L 5113 2094 
Q 5113 2597 4934 2840 
Q 4756 3084 4391 3084 
Q 3944 3084 3684 2787 
Q 3425 2491 3425 1978 
L 3425 0 
L 2847 0 
L 2847 2094 
Q 2847 2600 2669 2842 
Q 2491 3084 2119 3084 
Q 1678 3084 1418 2786 
Q 1159 2488 1159 1978 
L 1159 0 
L 581 0 
L 581 3500 
L 1159 3500 
L 1159 2956 
Q 1356 3278 1631 3431 
Q 1906 3584 2284 3584 
Q 2666 3584 2933 3390 
Q 3200 3197 3328 2828 
z
" transform="scale(0.015625)"/>
     </defs>
     <use xlink:href="#DejaVuSans-4d"/>
     <use xlink:href="#DejaVuSans-61" x="86.279297"/>
     <use xlink:href="#DejaVuSans-6e" x="147.558594"/>
     <use xlink:href="#DejaVuSans-75" x="210.9375"/>
     <use xlink:href="#DejaVuSans-61" x="274.316406"/>
     <use xlink:href="#DejaVuSans-6c" x="335.595703"/>
     <use xlink:href="#DejaVuSans-20" x="363.378906"/>
     <use xlink:href="#DejaVuSans-44" x="395.166016"/>
     <use xlink:href="#DejaVuSans-65" x="472.167969"/>
     <use xlink:href="#DejaVuSans-6e" x="533.691406"/>
     <use xlink:href="#DejaVuSans-73" x="597.070312"/>
     <use xlink:href="#DejaVuSans-69" x="649.169922"/>
     <use xlink:href="#DejaVuSans-74" x="676.953125"/>
     <use xlink:href="#DejaVuSans-79" x="716.162109"/>
     <use xlink:href="#DejaVuSans-20" x="775.341797"/>
     <use xlink:href="#DejaVuSans-4d" x="807.128906"/>
     <use xlink:href="#DejaVuSans-65" x="893.408203"/>
     <use xlink:href="#DejaVuSans-61" x="954.931641"/>
     <use xlink:href="#DejaVuSans-73" x="1016.210938"/>
     <use xlink:href="#DejaVuSans-75" x="1068.310547"/>
     <use xlink:href="#DejaVuSans-72" x="1131.689453"/>
     <use xlink:href="#DejaVuSans-65" x="1170.552734"/>
     <use xlink:href="#DejaVuSans-6d" x="1232.076172"/>
     <use xlink:href="#DejaVuSans-65" x="1329.488281"/>
     <use xlink:href="#DejaVuSans-6e" x="1391.011719"/>
     <use xlink:href="#DejaVuSans-74" x="1454.390625"/>
     <use xlink:href="#DejaVuSans-73" x="1493.599609"/>
     <use xlink:href="#DejaVuSans-20" x="1545.699219"/>
     <use xlink:href="#DejaVuSans-62" x="1577.486328"/>
     <use xlink:href="#DejaVuSans-79" x="1640.962891"/>
     <use xlink:href="#DejaVuSans-20" x="1700.142578"/>
     <use xlink:href="#DejaVuSans-44" x="1731.929688"/>
     <use xlink:href="#DejaVuSans-61" x="1808.931641"/>
     <use xlink:href="#DejaVuSans-74" x="1870.210938"/>
     <use xlink:href="#DejaVuSans-65" x="1909.419922"/>
    </g>
   </g>
  </g>
 </g>
 <defs>
  <clipPath id="p8a7615fb29">
   <rect x="57.6" y="41.472" width="357.12" height="266.112"/>
  </clipPath>
 </defs>
</svg>
